<svg xmlns="http://www.w3.org/2000/svg" viewBox="0 0 726.92 239.28"><title>logo-ao</title><path d="M67.1,160.8A663.49,663.49,0,0,0,105.9,74l1.6-10.3c.8-5,5-7.6,9.3-7.6,3.7,0,7.2,2.1,7.2,6.6,0,7.6-6.8,64.3-7.4,102.5-.2,11,1,18.2,3.5,18.2,4.8,0,10.1-12.4,17.4-27.7,1.2-2.3,2.5-3.5,3.5-3.5.8,0,1.2.6,1.2,1.9a9.4,9.4,0,0,1-.8,3.5c-5.8,14.3-13.2,39.1-28.9,39.1-7.9,0-11.6-12.2-12.6-29.6-6.4.4-14.5,1-23.4,1-9,21.7-11.4,28.9-16.2,28.9-3.9,0-8.5-3.1-8.5-6.6,0-2.9,5.8-12,11.2-22.3l-7-.4c-3.5-.2-5.2-2.1-5.2-3.9s1.7-3.5,4.8-3.5S62.6,160.6,67.1,160.8Zm32.1-6.6A499.85,499.85,0,0,1,102.9,98c-9.3,26.2-17.4,47.3-23.6,63.2l20.2.8A66.94,66.94,0,0,1,99.2,154.2Z" transform="translate(-49.1 -52.7)" fill="#222221"/><path d="M178.2,172c-.5,1.3-1.1,2.6-1.7,3.8s-1.2,2.5-1.8,3.7-1.4,2.4-2.2,3.6-1.6,2.4-2.5,3.5a10.92,10.92,0,0,1-1.3,1.7c-.5.5-1,1.1-1.6,1.6s-1.2,1.1-1.8,1.6a13.3,13.3,0,0,1-1.9,1.4,19.78,19.78,0,0,1-4.6,2.3,17.63,17.63,0,0,1-2.7.7,1.7,1.7,0,0,1-.7.1,1.7,1.7,0,0,0-.7.1h-1.4a9.71,9.71,0,0,1-3.7-.7,8.86,8.86,0,0,1-1.7-.8,17,17,0,0,1-1.4-1l-1.2-1.2a10.59,10.59,0,0,1-1-1.2,8.34,8.34,0,0,1-.8-1.2c-.2-.4-.5-.8-.7-1.2l-.6-1.2a6.12,6.12,0,0,1-.5-1.2,11.73,11.73,0,0,0-.5-1.1,11.73,11.73,0,0,1-.5-1.1c-.2-.8-.4-1.5-.6-2.3a15.54,15.54,0,0,1-.5-2.3,53.73,53.73,0,0,1-1.4-8.5,29.66,29.66,0,0,1-.3-4.2c-.1-1.4-.1-2.8-.1-4.2v-4.2a14.77,14.77,0,0,0,.1-2.1,13.4,13.4,0,0,1,.1-2,4.87,4.87,0,0,1,.1-1.2c0-.4.1-.8.1-1.2a9.24,9.24,0,0,1,.2-2.8c.2-1.9.3-3.8.6-5.7s.5-3.7.7-5.7c.8-5.4,1.7-10.7,2.9-16s2.6-10.6,4.3-15.9c.4-1.3.8-2.6,1.3-3.9l1.5-3.9c.2-.6.5-1.3.7-2a16.67,16.67,0,0,1,.8-2,10.84,10.84,0,0,0,.8-1.9,10.84,10.84,0,0,1,.8-1.9,45.33,45.33,0,0,1,4.2-7.5,38.72,38.72,0,0,1,5.5-6.9l.9-.9a8.75,8.75,0,0,1,1-.8,6.47,6.47,0,0,1,.9-.8c.3-.2.7-.5,1-.7s.8-.5,1.2-.7.8-.4,1.3-.6a6.6,6.6,0,0,1,2.8-.9,2.77,2.77,0,0,1,.9-.1h2c.2,0,.3,0,.3.1a4.93,4.93,0,0,1,1.8.5,10.62,10.62,0,0,1,1.7,1,5.55,5.55,0,0,1,.6.8,3.51,3.51,0,0,1,.5.8,10.09,10.09,0,0,1,.7,1.5,7.63,7.63,0,0,1,.5,2.7,9.64,9.64,0,0,1,0,2.4l-.3,2.1c-.2.8-.3,1.5-.4,2.1s-.3,1.3-.4,2a11.69,11.69,0,0,1-.6,2c-.2.7-.4,1.3-.6,1.9a2.24,2.24,0,0,0-.3,1,1.61,1.61,0,0,1-.3.9l-.7,2c-.4,1.3-.8,2.6-1.2,3.8s-.9,2.5-1.3,3.8c-.2.6-.5,1.2-.7,1.8s-.5,1.2-.7,1.8l-1.4,3.8c-1.8,5-3.8,10-5.9,14.9s-4.3,10-6.6,14.9c-.6,1.2-1.2,2.5-1.8,3.7s-1.2,2.5-1.8,3.7a17.38,17.38,0,0,0-1,1.9c-.3.7-.6,1.3-.9,1.9l-1,1.8-.5.9a2.77,2.77,0,0,0-.1.9,3.4,3.4,0,0,1-.1,1,12.1,12.1,0,0,0-.1,1.9,12.1,12.1,0,0,1-.1,1.9c-.1.6-.1,1.2-.2,1.8a11,11,0,0,1-.2,1.8c-.1,1.3-.1,2.6-.2,3.8s-.1,2.4-.1,3.8v3.6a10.87,10.87,0,0,0,.1,1.8,11,11,0,0,0,.2,1.8c.1.6.1,1.2.2,1.7a4.53,4.53,0,0,0,.3,1.6,8.33,8.33,0,0,1,.4,1.5,5,5,0,0,0,.4,1.3c.2.5.3.9.5,1a1.54,1.54,0,0,0,.3.7c.2.2.2.3.2.3l.2.1h1a4.89,4.89,0,0,0,1.3-.1,9.61,9.61,0,0,0,2.5-.9,17.77,17.77,0,0,0,2.7-1.7,13.45,13.45,0,0,1,1.4-1.1,6.89,6.89,0,0,0,1.3-1.1,21,21,0,0,0,2.4-2.7c.8-.9,1.5-1.9,2.3-3a34.57,34.57,0,0,0,2.2-3.1c.7-1.1,1.3-2.2,2-3.2a14,14,0,0,0,1-1.6c.3-.5.6-1.1,1-1.7a3.55,3.55,0,0,0,.4-.9,3.55,3.55,0,0,1,.4-.9l.5-.8.3-.8.1-.1a3.25,3.25,0,0,1,1.3-1.3,2.43,2.43,0,0,1,3.1,3l-.1.5-.1.6a4.65,4.65,0,0,0-.3.9,2.24,2.24,0,0,0-.3,1c-.1.3-.2.6-.3,1Zm-21.5-46.5a19.27,19.27,0,0,0-.5,2,17.77,17.77,0,0,0,1.7-2.7c.5-.9,1.1-1.8,1.6-2.7,2.7-4.6,5.1-9.3,7.3-14s4.1-9.5,5.9-14.5a1.61,1.61,0,0,0,.3-.9,3,3,0,0,0,.2-1,1.61,1.61,0,0,0,.3-.9,3,3,0,0,0,.2-1c.2-.6.3-1.2.5-1.8a5.66,5.66,0,0,0,.3-1.8,5.66,5.66,0,0,0,.3-1.8,10.87,10.87,0,0,0,.1-1.8V80.9a2.77,2.77,0,0,1-.1-.9,2.35,2.35,0,0,0-.2-.8,3.53,3.53,0,0,0-.5-1.2c0-.2-.1-.2-.2-.2s0-.1-.1-.1a.1.1,0,0,0-.1.1v.1h-.1l-.1.1h-.1l-.1.1c-.1,0-.2.1-.3.2a1.34,1.34,0,0,0-.8.7l-.5.5-.5.5c-.2.4-.5.8-.8,1.3s-.6.9-.9,1.4l-1.4,3.1c-.2.6-.5,1.2-.7,1.7s-.5,1.1-.7,1.7a8.51,8.51,0,0,1-.6,1.7c-.2.5-.5,1.1-.7,1.7l-1.3,3.5c-.8,2.4-1.6,4.8-2.3,7.2s-1.4,4.9-2.1,7.3C158.8,115.6,157.7,120.5,156.7,125.5Z" transform="translate(-49.1 -52.7)" fill="#222221"/><path d="M240.5,170.7c-.7.8-1.4,1.7-2.1,2.5s-1.4,1.7-2.1,2.5l-4.5,4.8a55.64,55.64,0,0,1-5,4.6,27.46,27.46,0,0,1-2.6,2.2c-.9.7-1.8,1.4-2.8,2.1a39.67,39.67,0,0,1-5.9,3.8,33.9,33.9,0,0,1-6.6,3.3c-.6.2-1.2.5-1.8.7l-1.8.6a12.86,12.86,0,0,1-1.9.4c-.7.1-1.3.3-2,.4a6.48,6.48,0,0,1-2,.2h-2.1a19.71,19.71,0,0,1-4.4-.5,14.12,14.12,0,0,1-4.4-1.4c-.8-.3-1.5-.7-2.2-1a23.92,23.92,0,0,1-2.1-1.3,21.72,21.72,0,0,1-3.6-3.2c-.5-.6-1-1.3-1.5-1.9s-.9-1.3-1.3-1.9a12.45,12.45,0,0,1-1-2,18,18,0,0,1-.8-2.1,21.34,21.34,0,0,1-1-4.2,17.37,17.37,0,0,1-.5-3.9c0-1.3,0-2.6.1-3.9s.2-2.6.4-3.8a23.25,23.25,0,0,1,.8-3.6,54,54,0,0,1,5.4-13.2,30.71,30.71,0,0,1,1.7-3.1,28.32,28.32,0,0,1,2-2.8l2.1-2.7a28.48,28.48,0,0,1,2.3-2.6,8,8,0,0,1,1.3-1.3,15.38,15.38,0,0,0,1.3-1.2,13.45,13.45,0,0,1,1.4-1.1,13.44,13.44,0,0,0,1.4-1.1,21.12,21.12,0,0,1,3.1-2.1,25.68,25.68,0,0,1,3.3-1.8,32.82,32.82,0,0,1,3.6-1.5c.6-.2,1.3-.3,1.9-.5s1.3-.3,2-.5a15.17,15.17,0,0,1,2.1-.3,9.34,9.34,0,0,1,2.3.2l2.4.3a14.35,14.35,0,0,1,2.5.8,14.75,14.75,0,0,1,4.5,3,13.16,13.16,0,0,1,3.2,4.4,19.47,19.47,0,0,1,1.6,4.6,38,38,0,0,1,.3,4.6,30,30,0,0,1-.3,4.3c-.2.7-.3,1.4-.5,2a18,18,0,0,0-.5,1.9c-.5,1.3-1,2.6-1.6,3.8a33.54,33.54,0,0,1-2.1,3.6,14,14,0,0,1-2.7,3.3,14.29,14.29,0,0,1-3.5,3,19.11,19.11,0,0,1-2.1,1.4,3.93,3.93,0,0,0-.6.2l-.3.1a.31.31,0,0,1-.2.1,4.65,4.65,0,0,1-.9.3,15.57,15.57,0,0,1-3.7,1,27.29,27.29,0,0,1-8,.6l-2.1-.3a4.4,4.4,0,0,0-1-.2c-.3-.1-.6-.2-1-.3a18,18,0,0,1-3.7-1.7c-.3-.2-.6-.3-.9-.5s-.5-.4-.8-.6a3.19,3.19,0,0,1-.7-.6c-.2-.2-.5-.4-.8-.7-.4-.5-.8-.9-1.2-1.4l-1.2-1.5a.31.31,0,0,1-.1-.2c0-.1,0-.2-.1-.2v1.8a24.59,24.59,0,0,0,.2,2.8,20.24,20.24,0,0,0,.4,2.6c.2.8.4,1.7.6,2.5s.6,1.6.9,2.3a10.22,10.22,0,0,0,2.1,3.5,7.69,7.69,0,0,0,1.2,1.3,14.62,14.62,0,0,0,1.3.9,5.67,5.67,0,0,0,1.3.8,8.45,8.45,0,0,0,1.7.5,11.7,11.7,0,0,0,2,.5c.7.1,1.5.3,2.3.4a4.87,4.87,0,0,1,1.2.1c.4,0,.8.1,1.2.1a5.28,5.28,0,0,0,2.5,0,34.49,34.49,0,0,0,5.5-.7c.9-.2,1.8-.5,2.8-.8s1.8-.7,2.8-1,1.8-.8,2.7-1.3,1.7-.9,2.6-1.4c1.8-1,3.5-2.1,5.3-3.2s3.4-2.4,5-3.7l1.2-.9c.4-.3.8-.7,1.2-1s.8-.7,1.2-1l1.2-1.2c.4-.4,1-.9,1.7-1.6s1.3-1.2,1.7-1.6a4.84,4.84,0,0,1,1.2-1l.5-.6.6-.6a1.56,1.56,0,0,1,2.4-.1,1.49,1.49,0,0,1,.2,2.2l-.2.3-.2.3-.6.7c-.2.2-.3.4-.5.6s-.3.4-.5.6a14.94,14.94,0,0,1-1.5,1.9A18,18,0,0,1,240.5,170.7Zm-49.9-21.8a11.07,11.07,0,0,0-1.2,2.7c-.3.9-.7,1.8-1,2.8a32.16,32.16,0,0,0-1.2,5.3l.1.1a19.1,19.1,0,0,0,2.7,1.6,7.94,7.94,0,0,0,2.7,1c.2.1.2.1.3.1a.77.77,0,0,1,.3.1c.2,0,.3,0,.3.1s.2.1.3.1a1.27,1.27,0,0,0,.6.1,1.27,1.27,0,0,1,.6.1,10.64,10.64,0,0,0,4.8-.5,20.94,20.94,0,0,0,2.3-.8c.7-.3,1.5-.7,2.3-1a10.54,10.54,0,0,0,1.1-.7,10.54,10.54,0,0,1,1.1-.7c.1-.1.2-.1.2-.2a.22.22,0,0,0,.2-.2l.1-.1.1-.1c.2-.1.2-.2.3-.2s.1-.2.3-.3.3-.4.5-.6a3.51,3.51,0,0,0,.5-.8,4.21,4.21,0,0,0,1-2,7.22,7.22,0,0,0,.9-2c.2-.7.4-1.5.6-2.3a5.16,5.16,0,0,0,.2-1.1,117.07,117.07,0,0,1,.2-2.1v-1a3.75,3.75,0,0,0,.1-1c0-.3-.1-.6-.1-.9a2,2,0,0,0-.1-.8c0-.2-.1-.4-.1-.6a1.27,1.27,0,0,1-.1-.6.75.75,0,0,0-.1-.5,2.3,2.3,0,0,0-.3-.9l-.5-.5a1.79,1.79,0,0,0-.7-.5,9.66,9.66,0,0,0-3.2-1.2,5,5,0,0,1-1.2-.2,5.28,5.28,0,0,0-2.5,0,12,12,0,0,0-5.1,1.8,10.56,10.56,0,0,0-2.3,1.7c-.7.6-1.3,1.3-2,2C192.6,145.7,191.5,147.3,190.6,148.9Z" transform="translate(-49.1 -52.7)" fill="#222221"/><path d="M307.4,159.2a1.77,1.77,0,0,1,1.2,2l-.2.9-.1.8a12.2,12.2,0,0,0-.5,1.7c-.2.5-.3,1.1-.5,1.6s-.3,1.1-.5,1.7c-.8,2.9-1.6,5.8-2.5,8.6a44,44,0,0,1-4,8.6,15.26,15.26,0,0,0-1.1,1.6,14.31,14.31,0,0,1-1.1,1.5,12.67,12.67,0,0,1-2.7,3,10.92,10.92,0,0,1-1.7,1.3,19.61,19.61,0,0,1-2.1,1.2c-.4.2-.8.3-1.2.5a2.77,2.77,0,0,1-1.3.3,3.18,3.18,0,0,1-1.3.2h-.7a1.08,1.08,0,0,1-.6.1,14.08,14.08,0,0,1-4.5-.7q-1.2-.3-2.1-.6a11.4,11.4,0,0,1-1.9-1l-1.8-1.2-1.8-1.2c-.5-.5-1.1-.9-1.6-1.4a18.48,18.48,0,0,1-1.4-1.4c-.8-.9-1.7-1.9-2.5-2.9s-1.6-2-2.3-3a37.71,37.71,0,0,1-3.9-6.4c-.2-.4-.5-.8-.7-1.3s-.5-.9-.7-1.4L239,192.9a2.45,2.45,0,0,1-1.6.6,2.22,2.22,0,0,1-2.2-2.1,2.35,2.35,0,0,1,.5-1.6l21.5-26.6a1.42,1.42,0,0,1-.2-.6,1.42,1.42,0,0,1-.2-.6c-.8-2.2-1.7-4.4-2.4-6.6s-1.5-4.4-2.2-6.6c-.1-.2-.1-.2-.1-.3a.77.77,0,0,0-.1-.3,39.47,39.47,0,0,1-1.4,5.9,32.79,32.79,0,0,1-1.7,4.5,23.76,23.76,0,0,1-3.2,5.4,12.19,12.19,0,0,1-1.6,1.8,1.73,1.73,0,0,1-1.2.6,1.76,1.76,0,0,1-1.3-.6,1.5,1.5,0,0,1,0-2.4c.1-.1.5-.6,1.4-1.7a23.36,23.36,0,0,0,2.8-4.8,54.33,54.33,0,0,0,2.5-7.5,41.56,41.56,0,0,0,1-11.2,4.94,4.94,0,0,1-.3-1.5l-.2-.8a.9.9,0,0,0-.1-.5c0-.2-.1-.3-.1-.5l-.1-.2a7.67,7.67,0,0,1,1.1-6.1,8.09,8.09,0,0,1,5.1-3.5,7.67,7.67,0,0,1,6.1,1.1,8.63,8.63,0,0,1,3.6,5.1.9.9,0,0,0,.1.5c0,.2.1.3.1.5,0,.4,0,.7.1.8v.8a2,2,0,0,1,.1.8,2.2,2.2,0,0,0,.1.8,11.13,11.13,0,0,1,.2,1.7,7.77,7.77,0,0,1,.2,1.6c.2,1.1.3,2.2.5,3.2s.4,2.2.5,3.2.3,1.8.6,2.8.4,1.8.6,2.8l17.8-22.1a7.45,7.45,0,0,1,5.4-3,7.81,7.81,0,0,1,5.9,1.7,7.45,7.45,0,0,1,3,5.4,8.17,8.17,0,0,1-1.7,6l-.8.8L270.9,164c.4,1.1.8,2.1,1.2,3.2s.8,2.1,1.2,3.2.8,2,1.2,2.9.9,1.8,1.3,2.8c1.1,1.9,2.2,3.6,3.2,5a16.73,16.73,0,0,0,3.7,3.8,8.79,8.79,0,0,1,1,.6,4.67,4.67,0,0,0,1,.5,4.87,4.87,0,0,0,2.2.6c.1,0,.2,0,.2.1h.5c.2,0,.3,0,.4-.1s.2-.1.4-.1a9.34,9.34,0,0,0,2-1,4.44,4.44,0,0,0,1.1-.8,11,11,0,0,1,1.1-1c.4-.4.7-.8,1-1.1s.6-.7,1-1.1c.6-.8,1.2-1.7,1.8-2.6l1.8-2.7c.5-.9,1.1-1.9,1.6-2.8a29.17,29.17,0,0,0,1.4-3.1,5.42,5.42,0,0,1,.6-1.1,1.33,1.33,0,0,0,.3-.7,1.45,1.45,0,0,0,.2-.7,5.13,5.13,0,0,1,.5-1.2c.2-.5.4-1.1.6-1.6s.4-1,.6-1.6a4.11,4.11,0,0,0,.3-.8,1.6,1.6,0,0,1,.3-.8l.2-.8.3-.7v-.1a1.59,1.59,0,0,1,.9-.9A1.76,1.76,0,0,1,307.4,159.2Z" transform="translate(-49.1 -52.7)" fill="#222221"/><path d="M501.1,172c-.5,1.3-1.1,2.6-1.7,3.8s-1.2,2.5-1.8,3.7-1.4,2.4-2.2,3.6-1.6,2.4-2.5,3.5a10.92,10.92,0,0,1-1.3,1.7c-.5.5-1,1.1-1.6,1.6s-1.2,1.1-1.8,1.6a13.3,13.3,0,0,1-1.9,1.4,19.78,19.78,0,0,1-4.6,2.3,17.63,17.63,0,0,1-2.7.7,1.7,1.7,0,0,1-.7.1,1.7,1.7,0,0,0-.7.1H476a9.71,9.71,0,0,1-3.7-.7,8.86,8.86,0,0,1-1.7-.8,17,17,0,0,1-1.4-1l-1.2-1.2a10.59,10.59,0,0,1-1-1.2,8.34,8.34,0,0,1-.8-1.2c-.2-.4-.5-.8-.7-1.2l-.6-1.2a6.12,6.12,0,0,1-.5-1.2,11.73,11.73,0,0,0-.5-1.1,11.73,11.73,0,0,1-.5-1.1c-.2-.8-.4-1.5-.6-2.3a15.54,15.54,0,0,1-.5-2.3,53.73,53.73,0,0,1-1.4-8.5,29.66,29.66,0,0,1-.3-4.2c-.1-1.4-.1-2.8-.1-4.2v-4.2a14.77,14.77,0,0,0,.1-2.1,13.4,13.4,0,0,1,.1-2,4.87,4.87,0,0,1,.1-1.2c0-.4.1-.8.1-1.2a9.24,9.24,0,0,1,.2-2.8c.2-1.9.3-3.8.6-5.7s.5-3.7.7-5.7c.8-5.4,1.7-10.7,2.9-16s2.6-10.6,4.3-15.9c.4-1.3.8-2.6,1.3-3.9l1.5-3.9c.2-.6.5-1.3.7-2a16.68,16.68,0,0,1,.8-2,10.84,10.84,0,0,0,.8-1.9,10.84,10.84,0,0,1,.8-1.9,45.33,45.33,0,0,1,4.2-7.5,38.72,38.72,0,0,1,5.5-6.9l.9-.9a8.74,8.74,0,0,1,1-.8,6.47,6.47,0,0,1,.9-.8l1-.7c.4-.2.8-.5,1.2-.7s.8-.4,1.3-.6a6.6,6.6,0,0,1,2.8-.9,2.77,2.77,0,0,1,.9-.1h2c.2,0,.3,0,.3.1a4.92,4.92,0,0,1,1.8.5,10.62,10.62,0,0,1,1.7,1,5.55,5.55,0,0,1,.6.8,3.51,3.51,0,0,1,.5.8,10.09,10.09,0,0,1,.7,1.5,7.64,7.64,0,0,1,.5,2.7,9.64,9.64,0,0,1,0,2.4l-.3,2.1c-.2.8-.3,1.5-.4,2.1s-.3,1.3-.4,2a11.69,11.69,0,0,1-.6,2c-.2.7-.4,1.3-.6,1.9a2.24,2.24,0,0,0-.3,1,1.61,1.61,0,0,1-.3.9l-.7,2c-.4,1.3-.8,2.6-1.2,3.8s-.9,2.5-1.3,3.8c-.2.6-.5,1.2-.7,1.8s-.5,1.2-.7,1.8l-1.4,3.8c-1.8,5-3.8,10-5.9,14.9s-4.3,10-6.6,14.9c-.6,1.2-1.2,2.5-1.8,3.7s-1.2,2.5-1.8,3.7a17.38,17.38,0,0,0-1,1.9c-.3.7-.6,1.3-.9,1.9l-1,1.8-.5.9a2.77,2.77,0,0,0-.1.9,3.4,3.4,0,0,1-.1,1,12.1,12.1,0,0,0-.1,1.9,12.1,12.1,0,0,1-.1,1.9c-.1.6-.1,1.2-.2,1.8a11,11,0,0,1-.2,1.8c-.1,1.3-.1,2.6-.2,3.8s-.1,2.4-.1,3.8v3.6a10.87,10.87,0,0,0,.1,1.8,11,11,0,0,0,.2,1.8c.1.6.1,1.2.2,1.7a4.53,4.53,0,0,0,.3,1.6,8.33,8.33,0,0,1,.4,1.5,5,5,0,0,0,.4,1.3c.2.5.3.9.5,1a1.54,1.54,0,0,0,.3.7c.2.2.2.3.2.3l.2.1h1a4.89,4.89,0,0,0,1.3-.1,9.61,9.61,0,0,0,2.5-.9,17.77,17.77,0,0,0,2.7-1.7,13.45,13.45,0,0,1,1.4-1.1,6.88,6.88,0,0,0,1.3-1.1,21,21,0,0,0,2.4-2.7c.8-.9,1.5-1.9,2.3-3a34.58,34.58,0,0,0,2.2-3.1c.7-1.1,1.3-2.2,2-3.2a14,14,0,0,0,1-1.6c.3-.5.6-1.1,1-1.7a3.55,3.55,0,0,0,.4-.9,3.55,3.55,0,0,1,.4-.9l.5-.8.3-.8.1-.1a3.25,3.25,0,0,1,1.3-1.3,2.43,2.43,0,0,1,3.1,3l-.1.5-.1.6a4.65,4.65,0,0,0-.3.9,2.24,2.24,0,0,0-.3,1c-.1.3-.2.6-.3,1Zm-21.5-46.5a19.27,19.27,0,0,0-.5,2,17.77,17.77,0,0,0,1.7-2.7c.5-.9,1.1-1.8,1.6-2.7,2.7-4.6,5.1-9.3,7.3-14s4.1-9.5,5.9-14.5a1.61,1.61,0,0,0,.3-.9,3,3,0,0,0,.2-1,1.61,1.61,0,0,0,.3-.9,3,3,0,0,0,.2-1c.2-.6.3-1.2.5-1.8a5.66,5.66,0,0,0,.3-1.8,5.66,5.66,0,0,0,.3-1.8,10.87,10.87,0,0,0,.1-1.8V80.9a2.77,2.77,0,0,1-.1-.9,2.35,2.35,0,0,0-.2-.8A3.53,3.53,0,0,0,497,78c0-.2-.1-.2-.2-.2s0-.1-.1-.1-.1,0-.1.1v.1h-.1l-.1.1h-.1l-.1.1c-.1,0-.2.1-.3.2a1.34,1.34,0,0,0-.8.7l-.5.5-.5.5c-.2.4-.5.8-.8,1.3s-.6.9-.9,1.4L491,85.8c-.2.6-.5,1.2-.7,1.7s-.5,1.1-.7,1.7a8.51,8.51,0,0,1-.6,1.7c-.2.5-.5,1.1-.7,1.7L487,96.1c-.8,2.4-1.6,4.8-2.3,7.2s-1.4,4.9-2.1,7.3C481.8,115.6,480.6,120.5,479.6,125.5Z" transform="translate(-49.1 -52.7)" fill="#222221"/><path d="M497.7,184.3a7.14,7.14,0,0,1-.2-2,11.48,11.48,0,0,0-.1-1.9v-3.6a53.77,53.77,0,0,1,.7-6.9c.2-1.1.3-2.2.5-3.3s.4-2.2.5-3.3.5-2.2.7-3.3.5-2.2.8-3.3.5-2.1.8-3.2.6-2.1.9-3.2.6-2.1.9-3.1.6-2,.9-3.1l2.1-6.2,1-3.1.6-1.5a4.11,4.11,0,0,0,.3-.8,1.6,1.6,0,0,1,.3-.8,7.47,7.47,0,0,1,4.3-4.4,8.18,8.18,0,0,1,10.7,4.2,7.22,7.22,0,0,1,.1,6.1.37.37,0,0,0-.1.3h-.1l-.6,1.4-.6,1.4c-.2.5-.4.9-.6,1.4a7.83,7.83,0,0,0-.5,1.4c-.4,1-.8,2-1.2,2.9s-.8,1.9-1.2,2.9-.8,1.9-1.1,2.8-.7,1.9-1.1,2.9-.7,1.9-1,2.8-.7,1.9-1,2.9-.7,1.9-1,2.8-.6,1.9-1,2.9-.6,1.9-.8,2.8-.5,1.9-.7,2.9-.6,1.9-.8,2.8-.4,1.9-.5,2.8c-.1.5-.1.9-.2,1.4a5.07,5.07,0,0,1-.2,1.3,5.28,5.28,0,0,1-.1,1.3c0,.4-.1.8-.1,1.2a4.48,4.48,0,0,1,.1,1.1,3.4,3.4,0,0,0,.1,1c0,.2,0,.3.1.3a.35.35,0,0,0,.1.2.9.9,0,0,1,.1.5v.2c.1,0,.1,0,.2.1a.44.44,0,0,0,.3.1h.2c.1,0,.1,0,.1.1a.1.1,0,0,0,.1.1h.1a1.27,1.27,0,0,0,.6-.1,5.07,5.07,0,0,0,.9-.2,12.75,12.75,0,0,0,2.1-1.2,21,21,0,0,0,2.2-1.6l1.2-.9c.4-.3.8-.7,1.2-1,1.4-1.3,2.8-2.7,4.3-4.3.7-.8,1.4-1.5,2.1-2.3a25.72,25.72,0,0,0,2.1-2.4c.6-.8,1.4-1.9,2.5-3.2s1.9-2.4,2.5-3.2a10.59,10.59,0,0,0,1-1.2,10.59,10.59,0,0,1,1-1.2l.9-1.3c.2-.2.3-.5.5-.7s.3-.4.5-.6a2.55,2.55,0,0,1,1.2-.8,1.74,1.74,0,0,1,1.4.3,1.75,1.75,0,0,1,.6,2.3,2,2,0,0,0-.4.8c-.1.3-.3.5-.4.8l-.7,1.4a19.24,19.24,0,0,1-1.5,2.9c-.5,1-1.2,2.2-2.1,3.7s-1.5,2.7-2.1,3.6-1.2,1.8-1.8,2.8-1.2,1.8-1.8,2.8-1.3,1.8-1.9,2.7-1.3,1.8-2,2.6a13.44,13.44,0,0,0-1.1,1.4,6.89,6.89,0,0,1-1.1,1.3l-1.3,1.3a16.61,16.61,0,0,1-1.4,1.3,27.35,27.35,0,0,1-3.1,2.3c-.3.2-.6.3-.9.5a4.67,4.67,0,0,1-1,.5,10.51,10.51,0,0,1-2.5.8h-.3l-.3.1H511a4.51,4.51,0,0,1-1.3.1,8.68,8.68,0,0,1-2.8-.5c-.5-.2-.9-.3-1.4-.5a6.11,6.11,0,0,1-1.4-.7,11.4,11.4,0,0,1-2.3-2,7.4,7.4,0,0,1-1.6-2.3,7.66,7.66,0,0,1-1-2.3,10.41,10.41,0,0,1-.6-2.2A3.72,3.72,0,0,1,497.7,184.3Zm31.1-73.5a10,10,0,0,1-7.2-2.9,9.73,9.73,0,0,1-2.9-7.2,10,10,0,0,1,2.9-7.2,9.73,9.73,0,0,1,7.2-2.9,10.13,10.13,0,0,1,7.2,2.9,9.82,9.82,0,0,1,3,7.2,9.66,9.66,0,0,1-3,7.2A10.13,10.13,0,0,1,528.8,110.8Z" transform="translate(-49.1 -52.7)" fill="#222221"/><path d="M604.9,160.9a1.91,1.91,0,0,1,1.3-.2,1.55,1.55,0,0,1,1.1.8,1.5,1.5,0,0,1,0,1.8,8.65,8.65,0,0,1-.7,1c-.2.3-.5.6-.7.9a1.76,1.76,0,0,0-.4.5c-.1.2-.3.3-.4.5l-.5.5-.5.5a23.71,23.71,0,0,1-3.9,3.2,21,21,0,0,1-4.8,2.3,10.71,10.71,0,0,1-2.7.6l-2.9.3h-1.4a6.6,6.6,0,0,1-1.4-.1c-.5-.1-1-.1-1.5-.2a3.53,3.53,0,0,1-1.4-.3,2.66,2.66,0,0,0-1.2-.3l-1.2-.3a10.59,10.59,0,0,0-1,1.2,10.59,10.59,0,0,1-1,1.2c-.9,1.2-1.8,2.4-2.8,3.6s-1.9,2.3-2.9,3.6l-5.7,7.2c-.5.6-.9,1.2-1.4,1.8s-.9,1.2-1.4,1.8l-.8.9-.7.9-1.4,2a6.63,6.63,0,0,1-5.1,1.7,7.09,7.09,0,0,1-4.8-2.5,3.91,3.91,0,0,1-1-1.6l-.6-1.8v-.1l-7.2-44c-1,3.2-2.2,6.5-3.5,9.9-1.3,2.9-2.4,5.3-3.4,7.2s-1.5,2.8-1.6,2.9a1.76,1.76,0,0,1-1.5.9,1.14,1.14,0,0,1-.8-.3,1.55,1.55,0,0,1-.7-2.3c0-.1.5-.9,1.4-2.6a68.46,68.46,0,0,0,3.1-6.5,77.63,77.63,0,0,0,3.3-9,50.18,50.18,0,0,0,2-10.1l-.5-2.9a6.8,6.8,0,0,1,1.2-5.2,7.25,7.25,0,0,1,4.6-2.9,6.59,6.59,0,0,1,5.3,1.3,7.22,7.22,0,0,1,2.8,4.6l7.6,46.4,2.4-1.8a25,25,0,0,1,2.4-1.8l3.9-3.3c1.3-1.1,2.6-2.3,3.9-3.5a22.38,22.38,0,0,1-5.8-5.7,11.13,11.13,0,0,1-1.6-2.4,16.64,16.64,0,0,1-1.3-2.7c-.2-.4-.3-.8-.5-1.3a12.12,12.12,0,0,1-.5-1.4,3.53,3.53,0,0,1-.3-1.4,7.77,7.77,0,0,1-.2-1.6c-.1-.5-.1-1.1-.2-1.6s-.1-1-.1-1.6a8.6,8.6,0,0,1,.1-1.6,10,10,0,0,1,.2-1.6,21.76,21.76,0,0,1,2-6.1,22.61,22.61,0,0,1,3.8-5l.2-.2.2-.1v-.1c.2-.2.3-.2.3-.3s.2-.1.3-.3a3.17,3.17,0,0,1,.6-.5c.2-.2.5-.3.7-.5a5.67,5.67,0,0,1,1.3-.8c.5-.2.9-.5,1.4-.7a15.74,15.74,0,0,1,6-1.6,9,9,0,0,1,3.3.1,10.17,10.17,0,0,1,3.3.9,14,14,0,0,1,3,1.8,23.21,23.21,0,0,1,2.1,2.5,10,10,0,0,1,.8,1.4,7.83,7.83,0,0,1,.5,1.4l.3,1.4a3.69,3.69,0,0,1,.2,1.3,1.48,1.48,0,0,1,.1.7v.3h.1v1.7a6.15,6.15,0,0,1-.1,1.4,5.85,5.85,0,0,1-.2,1.3c-.2.8-.4,1.7-.6,2.4s-.6,1.5-.9,2.3c-.6,1.5-1.3,3-2,4.4s-1.5,2.7-2.3,4c-.4.6-.8,1.3-1.2,1.9s-.9,1.3-1.3,1.9a7.28,7.28,0,0,0,2.4.7,16.06,16.06,0,0,0,6.9-.1,17.82,17.82,0,0,0,3.7-1.4c.5-.2.8-.3.9-.5.5-.2.8-.3.9-.5a9.29,9.29,0,0,0,1-.5A2,2,0,0,0,604.9,160.9Zm-26.5-9.7a1.7,1.7,0,0,1,.1.7,1.7,1.7,0,0,0,.1.7l.3,1.4c.2.2.2.5.3.7a1.6,1.6,0,0,0,.3.8l.7,1.4a15.26,15.26,0,0,0,3.5,4c.5-.6.9-1.2,1.4-1.8s.9-1.2,1.4-1.8a24.86,24.86,0,0,0,2.3-3.7c.2-.3.3-.6.5-.9a9.29,9.29,0,0,0,.5-1,3.55,3.55,0,0,0,.4-.9,3.55,3.55,0,0,1,.4-.9,12.32,12.32,0,0,0,.8-3.8,4.77,4.77,0,0,0,0-1.7.76.76,0,0,1-.1-.4.6.6,0,0,0-.1-.4v-.2l-.1-.1V143c0-.1,0-.1-.1-.2a.35.35,0,0,1-.1-.2,16792625.2,16792625.2,0,0,1-1-1.6,2.25,2.25,0,0,0-.9-1,2.37,2.37,0,0,0-1.2-.5,2.79,2.79,0,0,0-1-.1,9,9,0,0,0-2.2.7,21,21,0,0,0-2.2,1.6,5.8,5.8,0,0,0-.9,1l-.5.5c0,.1-.1.2-.2.3v.1h-.1v.1a17.61,17.61,0,0,0-1.4,2.3,5.64,5.64,0,0,0-.4,1.2c-.1.4-.3.8-.4,1.2v.6a1.48,1.48,0,0,0-.1.7Z" transform="translate(-49.1 -52.7)" fill="#222221"/><path d="M601.6,184.3a7.14,7.14,0,0,1-.2-2,11.49,11.49,0,0,0-.1-1.9v-3.6a53.77,53.77,0,0,1,.7-6.9c.2-1.1.3-2.2.5-3.3s.4-2.2.5-3.3.5-2.2.7-3.3.5-2.2.8-3.3.5-2.1.8-3.2.6-2.1.9-3.2.6-2.1.9-3.1.6-2,.9-3.1l2.1-6.2,1-3.1.6-1.5a4.11,4.11,0,0,0,.3-.8,1.6,1.6,0,0,1,.3-.8,7.47,7.47,0,0,1,4.3-4.4,8.18,8.18,0,0,1,10.7,4.2,7.22,7.22,0,0,1,.1,6.1.37.37,0,0,0-.1.3h-.1l-.6,1.4-.6,1.4c-.2.5-.4.9-.6,1.4a7.83,7.83,0,0,0-.5,1.4c-.4,1-.8,2-1.2,2.9s-.8,1.9-1.2,2.9-.8,1.9-1.1,2.8-.7,1.9-1.1,2.9-.7,1.9-1,2.8-.7,1.9-1,2.9-.7,1.9-1,2.8-.6,1.9-1,2.9-.6,1.9-.8,2.8-.5,1.9-.7,2.9-.6,1.9-.8,2.8-.4,1.9-.5,2.8c-.1.5-.1.9-.2,1.4a5.07,5.07,0,0,1-.2,1.3,5.28,5.28,0,0,1-.1,1.3c0,.4-.1.8-.1,1.2a4.49,4.49,0,0,1,.1,1.1,3.4,3.4,0,0,0,.1,1c0,.2,0,.3.1.3a.35.35,0,0,0,.1.2.9.9,0,0,1,.1.5v.2c.1,0,.1,0,.2.1a.44.44,0,0,0,.3.1h.2c.1,0,.1,0,.1.1a.1.1,0,0,0,.1.1h.1a1.27,1.27,0,0,0,.6-.1,5.07,5.07,0,0,0,.9-.2,12.75,12.75,0,0,0,2.1-1.2,21,21,0,0,0,2.2-1.6l1.2-.9c.4-.3.8-.7,1.2-1,1.4-1.3,2.8-2.7,4.3-4.3.7-.8,1.4-1.5,2.1-2.3a25.72,25.72,0,0,0,2.1-2.4c.6-.8,1.4-1.9,2.5-3.2s1.9-2.4,2.5-3.2a10.59,10.59,0,0,0,1-1.2,10.59,10.59,0,0,1,1-1.2l.9-1.3c.2-.2.3-.5.5-.7s.3-.4.5-.6a2.55,2.55,0,0,1,1.2-.8,1.74,1.74,0,0,1,1.4.3,1.75,1.75,0,0,1,.6,2.3,2,2,0,0,0-.4.8c-.1.3-.3.5-.4.8l-.7,1.4a19.24,19.24,0,0,1-1.5,2.9c-.5,1-1.2,2.2-2.1,3.7s-1.5,2.7-2.1,3.6-1.2,1.8-1.8,2.8-1.2,1.8-1.8,2.8-1.3,1.8-1.9,2.7-1.3,1.8-2,2.6a13.44,13.44,0,0,0-1.1,1.4,6.89,6.89,0,0,1-1.1,1.3l-1.3,1.3a16.61,16.61,0,0,1-1.4,1.3,27.35,27.35,0,0,1-3.1,2.3c-.3.2-.6.3-.9.5a4.67,4.67,0,0,1-1,.5,10.51,10.51,0,0,1-2.5.8h-.3l-.3.1h-.6a4.51,4.51,0,0,1-1.3.1,8.68,8.68,0,0,1-2.8-.5c-.5-.2-.9-.3-1.4-.5a6.11,6.11,0,0,1-1.4-.7,11.4,11.4,0,0,1-2.3-2,7.4,7.4,0,0,1-1.6-2.3,7.66,7.66,0,0,1-1-2.3,10.41,10.41,0,0,1-.6-2.2A3.72,3.72,0,0,1,601.6,184.3Zm31.1-73.5a10,10,0,0,1-7.2-2.9,9.73,9.73,0,0,1-2.9-7.2,10,10,0,0,1,2.9-7.2,9.73,9.73,0,0,1,7.2-2.9,10.13,10.13,0,0,1,7.2,2.9,9.82,9.82,0,0,1,3,7.2,9.66,9.66,0,0,1-3,7.2A10.13,10.13,0,0,1,632.7,110.8Z" transform="translate(-49.1 -52.7)" fill="#222221"/><path d="M703,170.7c-.7.8-1.4,1.7-2.1,2.5s-1.4,1.7-2.1,2.5l-4.5,4.8a55.64,55.64,0,0,1-5,4.6,27.46,27.46,0,0,1-2.6,2.2c-.9.7-1.8,1.4-2.8,2.1a39.66,39.66,0,0,1-5.9,3.8,33.9,33.9,0,0,1-6.6,3.3c-.6.2-1.2.5-1.8.7l-1.8.6a12.86,12.86,0,0,1-1.9.4c-.7.1-1.3.3-2,.4a6.48,6.48,0,0,1-2,.2h-2.1a19.72,19.72,0,0,1-4.4-.5,14.12,14.12,0,0,1-4.4-1.4c-.8-.3-1.5-.7-2.2-1a23.91,23.91,0,0,1-2.1-1.3,21.72,21.72,0,0,1-3.6-3.2c-.5-.6-1-1.3-1.5-1.9s-.9-1.3-1.3-1.9a12.44,12.44,0,0,1-1-2,18,18,0,0,1-.8-2.1,21.34,21.34,0,0,1-1-4.2,17.37,17.37,0,0,1-.5-3.9c0-1.3,0-2.6.1-3.9s.2-2.6.4-3.8a23.26,23.26,0,0,1,.8-3.6,54,54,0,0,1,5.4-13.2,30.71,30.71,0,0,1,1.7-3.1,28.31,28.31,0,0,1,2-2.8l2.1-2.7a28.49,28.49,0,0,1,2.3-2.6,8,8,0,0,1,1.3-1.3,15.37,15.37,0,0,0,1.3-1.2,13.45,13.45,0,0,1,1.4-1.1,13.44,13.44,0,0,0,1.4-1.1,21.12,21.12,0,0,1,3.1-2.1,25.68,25.68,0,0,1,3.3-1.8,32.82,32.82,0,0,1,3.6-1.5c.6-.2,1.3-.3,1.9-.5s1.3-.3,2-.5a15.17,15.17,0,0,1,2.1-.3,9.34,9.34,0,0,1,2.3.2l2.4.3a14.36,14.36,0,0,1,2.5.8,14.75,14.75,0,0,1,4.5,3,13.16,13.16,0,0,1,3.2,4.4,19.47,19.47,0,0,1,1.6,4.6,38,38,0,0,1,.3,4.6,30,30,0,0,1-.3,4.3c-.2.7-.3,1.4-.5,2a18,18,0,0,0-.5,1.9c-.5,1.3-1,2.6-1.6,3.8a33.54,33.54,0,0,1-2.1,3.6,14,14,0,0,1-2.7,3.3,14.29,14.29,0,0,1-3.5,3,19.11,19.11,0,0,1-2.1,1.4,3.93,3.93,0,0,0-.6.2l-.3.1a.31.31,0,0,1-.2.1,4.65,4.65,0,0,1-.9.3,15.57,15.57,0,0,1-3.7,1,27.29,27.29,0,0,1-8,.6l-2.1-.3a4.4,4.4,0,0,0-1-.2c-.3-.1-.6-.2-1-.3a18,18,0,0,1-3.7-1.7c-.3-.2-.6-.3-.9-.5s-.5-.4-.8-.6a3.19,3.19,0,0,1-.7-.6c-.2-.2-.5-.4-.8-.7-.4-.5-.8-.9-1.2-1.4l-1.2-1.5a.31.31,0,0,1-.1-.2c0-.1,0-.2-.1-.2v1.8a24.57,24.57,0,0,0,.2,2.8,20.23,20.23,0,0,0,.4,2.6c.2.8.4,1.7.6,2.5s.6,1.6.9,2.3a10.22,10.22,0,0,0,2.1,3.5,7.69,7.69,0,0,0,1.2,1.3,14.63,14.63,0,0,0,1.3.9,5.67,5.67,0,0,0,1.3.8,8.45,8.45,0,0,0,1.7.5,11.7,11.7,0,0,0,2,.5c.7.1,1.5.3,2.3.4a4.87,4.87,0,0,1,1.2.1c.4,0,.8.1,1.2.1a5.28,5.28,0,0,0,2.5,0,34.49,34.49,0,0,0,5.5-.7c.9-.2,1.8-.5,2.8-.8s1.8-.7,2.8-1,1.8-.8,2.7-1.3,1.7-.9,2.6-1.4c1.8-1,3.5-2.1,5.3-3.2s3.4-2.4,5-3.7l1.2-.9c.4-.3.8-.7,1.2-1s.8-.7,1.2-1l1.2-1.2c.4-.4,1-.9,1.7-1.6s1.3-1.2,1.7-1.6a4.84,4.84,0,0,1,1.2-1l.5-.6.6-.6a1.56,1.56,0,0,1,2.4-.1,1.49,1.49,0,0,1,.2,2.2l-.2.3-.2.3-.6.7c-.2.2-.3.4-.5.6s-.3.4-.5.6a14.93,14.93,0,0,1-1.5,1.9A18,18,0,0,1,703,170.7Zm-49.9-21.8a11.06,11.06,0,0,0-1.2,2.7c-.3.9-.7,1.8-1,2.8a32.16,32.16,0,0,0-1.2,5.3l.1.1a19.1,19.1,0,0,0,2.7,1.6,7.94,7.94,0,0,0,2.7,1c.2.1.2.1.3.1a.77.77,0,0,1,.3.1c.2,0,.3,0,.3.1s.2.1.3.1a1.27,1.27,0,0,0,.6.1,1.27,1.27,0,0,1,.6.1,10.64,10.64,0,0,0,4.8-.5,20.94,20.94,0,0,0,2.3-.8c.7-.3,1.5-.7,2.3-1a10.54,10.54,0,0,0,1.1-.7,10.54,10.54,0,0,1,1.1-.7c.1-.1.2-.1.2-.2a.22.22,0,0,0,.2-.2l.1-.1.1-.1c.2-.1.2-.2.3-.2s.1-.2.3-.3.3-.4.5-.6a3.51,3.51,0,0,0,.5-.8,4.21,4.21,0,0,0,1-2,7.22,7.22,0,0,0,.9-2c.2-.7.4-1.5.6-2.3a5.16,5.16,0,0,0,.2-1.1,117.1,117.1,0,0,1,.2-2.1v-1a3.75,3.75,0,0,0,.1-1c0-.3-.1-.6-.1-.9a2,2,0,0,0-.1-.8c0-.2-.1-.4-.1-.6a1.27,1.27,0,0,1-.1-.6.75.75,0,0,0-.1-.5,2.3,2.3,0,0,0-.3-.9l-.5-.5a1.79,1.79,0,0,0-.7-.5,9.66,9.66,0,0,0-3.2-1.2,5,5,0,0,1-1.2-.2,5.28,5.28,0,0,0-2.5,0,12,12,0,0,0-5.1,1.8,10.56,10.56,0,0,0-2.3,1.7c-.7.6-1.3,1.3-2,2C655.1,145.7,654,147.3,653.1,148.9Z" transform="translate(-49.1 -52.7)" fill="#222221"/><path d="M764.9,161.3a1.44,1.44,0,0,1,.7,2.2v.1c-.9,1.7-1.8,3.4-2.8,5s-1.8,3.3-2.8,4.9-2,3.3-3,5-2,3.2-3.1,4.8a2.09,2.09,0,0,0-.4.6,2.18,2.18,0,0,1-.4.5c-.2.2-.3.4-.5.6s-.3.4-.5.6l-.9,1.2a10.59,10.59,0,0,1-1,1.2,5.24,5.24,0,0,1-1,1.1l-1.1,1.1a12.06,12.06,0,0,1-2.4,2.1,7.77,7.77,0,0,1-3,1.8,7.62,7.62,0,0,1-2,.6,4.48,4.48,0,0,1-2.3,0,15.46,15.46,0,0,1-2.3-.7,5.69,5.69,0,0,1-2-1.3l-1.5-1.5a5.58,5.58,0,0,0-.5-.8,2.18,2.18,0,0,1-.5-.8,19.19,19.19,0,0,1-1.4-3.2c-.2-.5-.3-1.1-.5-1.6s-.3-1.1-.5-1.7a4.53,4.53,0,0,1-.3-1.6,10,10,0,0,0-.2-1.6l-.3-3.1a86,86,0,0,1,.3-12.4c.3-2.3.8-4.8,1.4-7.4a61,61,0,0,1-12.4,0,44.82,44.82,0,0,1-5.8-1.4c-.1.1-.1.2-.2.2a.22.22,0,0,1-.2.2,19.24,19.24,0,0,1-1.5,2.9,10.93,10.93,0,0,1-.8,1.5c-.3.5-.6.9-.9,1.4a10,10,0,0,1-.8,1.4c-.3.5-.6.9-.9,1.4-.2.2-.3.5-.5.7s-.3.5-.5.7-.5.8-.9,1.4a.89.89,0,0,1-.8.5,1.64,1.64,0,0,1-1-.2,1.73,1.73,0,0,1-.5-1.8,10,10,0,0,0,.8-1.4c.2-.5.5-.9.7-1.4a10,10,0,0,1,.8-1.4c.3-.5.5-.9.8-1.4s.5-1,.7-1.5.5-.9.7-1.4c.5-1,.9-2,1.3-2.9a.31.31,0,0,0,.1-.2c-1-.5-2-1.1-3-1.7a14.8,14.8,0,0,1-2.9-2.2,11.84,11.84,0,0,1-3-3.3,14.71,14.71,0,0,1-2.1-4.4,10.55,10.55,0,0,1-.3-5,12.76,12.76,0,0,1,1.6-5,11.48,11.48,0,0,0,.8-1,1.76,1.76,0,0,1,.5-.4,1.76,1.76,0,0,0,.5-.4,6.47,6.47,0,0,1,.9-.8l1-.7a6.05,6.05,0,0,1,2.1-.8c.7-.2,1.4-.3,2.1-.5h2.8a3.4,3.4,0,0,1,1,.1c.3.1.6.1.9.2a1.93,1.93,0,0,1,1,.3,9.29,9.29,0,0,1,1,.5c.3.2.6.3,1,.6a3,3,0,0,1,.8.8c.2.3.5.6.7.9a4.05,4.05,0,0,1,.5.9,4.18,4.18,0,0,0,.4,1,3.18,3.18,0,0,1,.3.9,2.92,2.92,0,0,0,.2.9,3.08,3.08,0,0,0,.1,1c0,.3.1.6.1.9a3.08,3.08,0,0,1-.1,1c0,.3-.1.6-.1.9a2.77,2.77,0,0,0-.1.9,2.77,2.77,0,0,1-.1.9,9.11,9.11,0,0,0-.3,1.6h2.3a43.35,43.35,0,0,0,10.5-1.4c.9-.2,1.8-.4,2.8-.6s1.8-.5,2.8-.8l2.7-.9c.9-.3,1.8-.6,2.8-.9l2.7-.6a7.23,7.23,0,0,1,5.7,1,7.34,7.34,0,0,1,3.3,4.8,7.42,7.42,0,0,1-.3,4.2,7.84,7.84,0,0,1-2.4,3.3,30.24,30.24,0,0,0-3.1,3.1c-.5.6-.9,1.3-1.4,1.9a22.62,22.62,0,0,0-1.3,2,63.17,63.17,0,0,0-4.3,9.4c-.2.8-.5,1.7-.7,2.5s-.5,1.6-.7,2.5a5.07,5.07,0,0,0-.2,1.3,6.88,6.88,0,0,0-.2,1.3c-.1.4-.1.8-.2,1.3a5.07,5.07,0,0,1-.2,1.3,10.55,10.55,0,0,0-.2,2.5v2.5a4.87,4.87,0,0,1,.1,1.2,4.87,4.87,0,0,0,.1,1.2,8.3,8.3,0,0,0,.6,2.1,4.25,4.25,0,0,0,.7,1.4c.1.2.2.3.3.5s.1.1.2.1a.31.31,0,0,1,.2.1c.1,0,.2,0,.2.1a.35.35,0,0,1,.2.1c.2,0,.3,0,.4-.1s.3-.1.4-.1l.9-.3c.3-.2.7-.3,1-.5a8.53,8.53,0,0,0,2.1-1.4c.7-.5,1.3-1,2-1.6l2-2,.5-.5c.2-.2.3-.4.5-.5s.5-.6.9-1a68.18,68.18,0,0,0,6.5-9c.5-.8,1-1.5,1.5-2.3s.9-1.6,1.4-2.4.9-1.7,1.4-2.5a19.64,19.64,0,0,0,1.3-2.5,1.42,1.42,0,0,1,.9-.8A1.83,1.83,0,0,1,764.9,161.3ZM705.7,136a6.11,6.11,0,0,0,.7,1.4c.3.4.7.8,1,1.2l1.4,1a5.58,5.58,0,0,1,.8.5,5.58,5.58,0,0,0,.8.5,10.93,10.93,0,0,0,1.5.8,8.45,8.45,0,0,0,1.7.5,8,8,0,0,0,.3-1.6,2,2,0,0,1,.1-.8c0-.2.1-.5.1-.7a2,2,0,0,0,.1-.8v-.8a5.51,5.51,0,0,0-.5-2.5,4.7,4.7,0,0,0-.6-.9,3.19,3.19,0,0,0-.7-.6,4.47,4.47,0,0,0-2.2-.5,1.49,1.49,0,0,0-.6.1c-.2,0-.5.1-.7.1v.1h-.3c-.1,0-.2,0-.2.1-.2,0-.3,0-.3.1a.35.35,0,0,0-.2.1,4,4,0,0,0-1.7,1.3,1.14,1.14,0,0,0-.3.8C705.7,135.4,705.7,135.7,705.7,136Z" transform="translate(-49.1 -52.7)" fill="#222221"/><path d="M70.5,288.7c-4.5,0-8.9,1.4-13.2,1.4-9.4-.2-6.4-7.4-6.4-14.2,0-8.7-.2-17.5-.3-26.2,0-7.8,1-16.8-1.5-24.3a.35.35,0,0,1,.1-.2c1.4-2.9,6.9-2.6,8.7-.2s.7,7.1.9,9.8c.6,7.3.8,14.8,1,22.1.2,7,0,13.9.6,21,.3,4-.4,4.3,3.6,4.7,2.7.2,9-.6,10.9,2C77.9,288.5,73.4,288.6,70.5,288.7ZM56.7,272.4c0-.2-.3-.4-.6-.6l.1-.1a4.28,4.28,0,0,0,.5-1.3,1.7,1.7,0,0,0-.1-.7c0-.2,0-.5-.1-.6a.19.19,0,0,0-.3,0l-.2.4c0-.2-.1-.3-.2-.5s-.6-.1-.6,0l-.2.6-.2.7a1.29,1.29,0,0,0,.1,1.2c0,.2.2.2.3.3a.35.35,0,0,1-.1.2,2.85,2.85,0,0,1-.8,1.4c-.1.2-.3.4-.1.5a1.15,1.15,0,0,0,1,.1c0,.1,0,.1-.1.2s-.2.2-.2.3.2.6.3.9h.4a.83.83,0,0,0,.2-.8.52.52,0,0,1,.2-.4c0-.2-.2-.2-.2-.4a1.27,1.27,0,0,0,.7-.8A1.07,1.07,0,0,0,56.7,272.4Zm-2.1-4.1c.2.2.1.3.2.5h.4c.1-.2.2-.2.2-.4s-.2-.3,0-.5.4-.4-.2-.6c0,0-.2,0-.2.1.2.1.3.2.1.4a1.24,1.24,0,0,0-.3.2C54.5,268.1,54.5,268.2,54.6,268.3Zm.2-12.7.2.2c.1,0,.4-.1.4-.2l-.2-.2-.2-.2a.35.35,0,0,0-.2.1C54.7,255.5,54.7,255.5,54.8,255.6Zm0,10.3.2.6c0,.1.1.1.1,0a1.7,1.7,0,0,0-.1-.7A.31.31,0,0,1,54.8,265.9Zm1.8-1.1c.1-.6.9-1.1.4-1.6-.1-.1-.6,0-.6.1-.2.2-.2.5-.3.7l-.2.3a1.7,1.7,0,0,1,.1-.7,1.8,1.8,0,0,1,.3-1.2.8.8,0,0,0,.2-.9,1.33,1.33,0,0,1-.3-.5l-.1-.1a.22.22,0,0,1,.2.2c-.1,0,.3,0,.4-.1s-.2-.3-.4-.5a.51.51,0,0,1-.4-.5.52.52,0,0,0,.4-.2c.2-.1.1-.2,0-.2-.2-.2-.3-.3-.3-.5h-.1a1.42,1.42,0,0,0,.2-.6l.2-.1c.2-.2.1-.4.2-.6s-.1-.5-.1-.6-.1-.2,0-.4a.31.31,0,0,0,.1-.2c-.1-.2-.4-.2-.6-.2v-.1c-.1-.2-.3-.3-.6-.5h-.1c.1.2.3.3.5.5-.2,0-.3,0-.4.1s-.2.2,0,.3c.4.1,0,.3.1.5a1.42,1.42,0,0,1,.2.6c-.1.2-.2.5,0,.6h.1l-.1.1a1.61,1.61,0,0,0-.3.9c-.1.2-.2.6,0,.8l.2.2h-.1c.1.1-.1.2-.1.4s-.1.3.1.5.2.3.2.5-.2.3-.3.5a2,2,0,0,0-.2,1,1.54,1.54,0,0,0,.2,1.1c0,.1.2.1.5.1,0,.2.1.4.1.6s.3.2.2.4l-.2.2a2.09,2.09,0,0,0-.4.6.62.62,0,0,0,.4.6,1,1,0,0,0,.3.1c.3.1-.3.5-.4.6a.59.59,0,0,0,.2.9,1.1,1.1,0,0,0,.8,0c.1-.2-.2-.4-.2-.6a.9.9,0,0,1,.1-.5c0-.2.2-.4-.2-.6.1,0,.2,0,.2-.1.2-.2-.2-.5-.1-.8s.4-.6.5-1c0,.4-.3.1-.5-.1Z" transform="translate(-49.1 -52.7)" fill="#d8615b"/><path d="M93.5,230.7c-1.4,3.4-1.4,19.4,1.2,20.8,1.7.9,10.8-2.2,10.4,2.9-.3,3.9-6.8,2.1-9,2.8-6.5,2.2-2.7,16.8-3,22.6,1.6-.2,12.8-2.7,10.6,3.1-.4,1-11.1,3.9-12.9,4.1-10.9,1.1-6.1-16.2-6-22.3.4-11.3-.6-22.9-.4-34.1,0-4.1-.3-6.9,4.7-7.8a27.92,27.92,0,0,1,15.9,1.6C110.5,232.6,95.4,226,93.5,230.7ZM89,259.3c0-.1-.3-.1-.5-.1.1,0,.1-.1,0-.1a2.49,2.49,0,0,0-.1-.8c0-.2-.3-.4-.2-.6s.2-.2.2-.3a1.78,1.78,0,0,0,.4-1,1.21,1.21,0,0,0-.3-.9.37.37,0,0,0-.3-.1c-.3-.2.2-.7.4-1a1,1,0,0,0-.3-1.3.85.85,0,0,0-.7,0c-.2.2.1.6.1.8s0,.4,0,.6a.55.55,0,0,0,.2.8c-.2,0-.2.1-.2.1-.2.4.1.8.1,1.2s-.5.9-.6,1.4c-.1.2.2.6.4.8l.1.1h-.1c-.1.8-.9,1.5-.4,2.3.1.2.5.1.6,0,.3-.3.2-.6.4-1l.2-.5a4.1,4.1,0,0,1-.1,1.1,3.43,3.43,0,0,1-.4,1.6,1.48,1.48,0,0,0-.2,1.3c.2.2.2.5.3.7l.1.1c-.2-.1-.2-.2-.2-.3s-.4-.1-.4,0c-.2.2.1.5.4.7a1.08,1.08,0,0,1,.3.7c-.2.1-.3.1-.4.2s-.1.2,0,.3.3.4.2.6h.1a3.09,3.09,0,0,0-.2.8c-.2,0-.2.1-.2.1a1.2,1.2,0,0,0-.2.8c-.1.2.1.6.1.8a.6.6,0,0,1-.1.4l-.2.2c.1.2.4.2.6.3v.1a1.23,1.23,0,0,0,.4.8h.1l-.3-.7a.3.3,0,0,0,.4,0c.2-.2.2-.2,0-.4s.1-.4.1-.6a1.34,1.34,0,0,1-.1-.9c0-.2.2-.6,0-.8h-.1c0-.1.1-.1.1-.2a4.23,4.23,0,0,0,.4-1.2c.1-.3.3-.8,0-1.1a.22.22,0,0,0-.2-.2c0-.2.2-.3.2-.6a1.7,1.7,0,0,0-.1-.7,1.27,1.27,0,0,1-.1-.6c-.1-.2.2-.5.2-.7a3.64,3.64,0,0,0,.2-1.4A4.57,4.57,0,0,0,89,259.3Zm.9-13.4a1.7,1.7,0,0,0-1,0,.31.31,0,0,0,.1-.2,1.42,1.42,0,0,0,.2-.6c.1-.4-.2-.8-.3-1.2-.1-.1-.4-.1-.4,0a1.39,1.39,0,0,0-.2,1.1c0,.2-.1.4-.1.6a.76.76,0,0,0,.2.5,2.4,2.4,0,0,0-.7,1.3,1.64,1.64,0,0,0-.2,1c0,.3.3.6.6.9l-.1.1a5.92,5.92,0,0,0-.5,1.9c0,.3.1.6.1,1s0,.6.2,1H88a1.42,1.42,0,0,0,.2-.6c.1.2.2.5.3.7a.64.64,0,0,0,.6,0,1.49,1.49,0,0,0,.2-.9l.2-1a2.79,2.79,0,0,0-.1-1.8c0-.2-.2-.3-.3-.5s.1-.2.1-.3a8.64,8.64,0,0,1,.7-2.1C90,246.4,90.2,246.1,89.9,245.9Zm-1.6,25.9c0-.1-.4-.1-.4,0l.3.7c0,.1.2.1.2,0C88.6,272.3,88.5,272.1,88.3,271.8Zm0-28h0c.1.1.2.1.2,0Zm1.2,10.5-.2-.7c0-.1-.4-.1-.4,0a1.08,1.08,0,0,0-.1.6c-.1.2.1.4-.1.6-.2.4-.4.6.2.9.1.1.3,0,.2,0-.2-.2-.3-.4-.1-.6l.4-.4C89.7,254.6,89.6,254.4,89.5,254.3Zm-.1,3.3a3.08,3.08,0,0,1-.1-1c0-.1-.2-.1-.2,0a3.75,3.75,0,0,0,.1,1C89.2,257.7,89.4,257.7,89.4,257.6Z" transform="translate(-49.1 -52.7)" fill="#d8615b"/><path d="M134.8,245c3.2-3.5,4.2-12.6-.7-15.5-7.9-4.8-6.5,10-6.5,13.5.1,12.1,11.4,22,11.9,34,.6,13.5-20.8,16.7-24.4,3.7-.6-1.8.6-4,0-5.6-.2-.7-1.7-1.2-1.8-1.9-.6-3.4,3.5-5.3,7-4.7,4.3.7,2.5,2.4,2,5.9-.4,2.9-.3,6.2,2.6,8,13.1-2.1-6.5-28.7-7.3-34.9-.7-5.4.2-16.2,4.1-20.3,5.6-5.6,16.3-3.6,21.3,1.3C143.8,233.2,144.7,254.7,134.8,245Zm-10.9,4.7c0-.1-.1-.1-.1-.2s-.1-.1-.2-.1l-.2-.3a.22.22,0,0,0-.2.2c0,.1.1.2.2.3a.35.35,0,0,1,.1.2c.1,0,.1,0,.2.1C123.7,249.8,124,249.8,123.9,249.7Zm3.4,5.4c-.3-.1-.6-.2-.7-.5q.3-.15.3-.3c.1-.2-.1-.2-.2-.2s-.5-.2-.6-.4H126l-.2-.7c.1-.1.1-.2.2-.2,0-.3-.2-.5-.2-.7a1.54,1.54,0,0,0-.4-.6c-.1-.2-.2-.2-.2-.4s.1-.2,0-.2h-.6c-.1,0-.1,0-.1-.1l-.3-.2c-.1,0-.2-.1-.3-.2a.1.1,0,0,0-.1.1l.6.4c-.1,0-.3.1-.3.2s-.1.3.2.3.1.4.2.6a2.65,2.65,0,0,1,.5.6c.1.2.1.6.5.6v.2c0,.4.2.8.2,1.2.2.3.2.8.6,1h.2v.1a.9.9,0,0,1,.1.5c.1.2.2.5.4.6s.3.2.4.5.1.5.1.8a6.11,6.11,0,0,0,.3,1.3,3.92,3.92,0,0,0,.8,1.4c0,.1.3-.1.5-.2v.1c0,.1,0,.1.1.1l.3.6c.1.2.4.2.3.5v.3a1.7,1.7,0,0,0,0,1c.1.2.2.6.6.6.1.1.2,0,.3,0,.4.1.1.7,0,1-.1.5.1,1,.7,1a.19.19,0,0,0,.3,0,.1.1,0,0,0-.1.1v.6a1.76,1.76,0,0,0-.4-.5c-.1-.1-.6.2-.6.2-.1.3.1.6.1.8l.2,1a3.09,3.09,0,0,0,.2.8c.1.2.2.5.3.7l.5.3v1.4a4.4,4.4,0,0,1-.2,1c-.1.2-.2.6.1.6a1.86,1.86,0,0,0,1-.1v.2a.9.9,0,0,0-.1.5c0,.2.1.3.2.6s.2.3.3.5.3.1.4,0a2.16,2.16,0,0,0,.1-1.1c-.1-.2,0-.4,0-.6s-.2-.3-.3-.4a2,2,0,0,0,.4-1.4,1.7,1.7,0,0,0,0-1,2,2,0,0,0-.9-.6v-.1a.9.9,0,0,1,.1-.5v-.5a2.77,2.77,0,0,0-.1-.9,3.55,3.55,0,0,0-.4-.9c-.2-.2-.2-.6-.5-.8h-.2a.37.37,0,0,0,.3-.2c.1-.3-.2-.5-.3-.6a.85.85,0,0,1-.2-.6c0-.2-.1-.6-.5-.6.1-.1.2-.1.2-.2.1-.4-.4-.6-.5-1s.1-1,0-1.4-.5-.4-.7-.6a.1.1,0,0,0-.1-.1,4.82,4.82,0,0,1,0-1.2,1,1,0,0,0-.5-1c-.1-.1-.5.2-.6.2-.1.4.2.7.1,1v.6l-.4-1a2.19,2.19,0,0,1-.2-1.6c.1-.2,0-.5,0-.6s-.1-.1-.1-.2-.1-.1-.1-.2l-.2-.4a1.38,1.38,0,0,1-.4-.3c0,.1.4-.2.4-.2C128,255.1,127.6,255.1,127.3,255.1Zm.3.6a.22.22,0,0,1-.2-.2c-.1,0-.1-.1-.2-.1A1.38,1.38,0,0,1,127.6,255.7Zm1.9,7.2c-.2-.2-.2-.6-.5-.8,0-.1-.2,0-.2.1a3.51,3.51,0,0,1,.5.8C129.5,263,129.5,263,129.5,262.9Zm1.2,2.6a.9.9,0,0,0-.1-.5c-.1-.2-.3-.4-.2-.6.2-.5.2-.6-.5-.7-.1,0-.3.1-.2.2.3.1.5.2.3.5s-.2.3-.2.5.1.2.2.3a3.11,3.11,0,0,1,.4.6C130.4,265.7,130.7,265.6,130.7,265.5Zm2.9,8.8c0,.1.1.1.2.1C133.6,274.4,133.6,274.3,133.6,274.3Z" transform="translate(-49.1 -52.7)" fill="#d8615b"/><path d="M197.5,279.8c-.5,4.7-1,5.2-5.2,7.1-4.4,1.9-9.4,3.7-13.9.6-6.4-4.4-3.6-16.6-4.4-23.4-1.3-10.1-1.3-23.7,1.9-33.5,3.4-10.4,14.9-13.3,23.1-6.4a.35.35,0,0,0,.2.1c.2,5.1,4.7,24.9-3.2,24.4-6.5-.4-4.9-4.9-4.7-9.1.2-3,.6-12.4-3.9-11.9-7.1.7-4.1,19.2-4.5,24-.3,5.2-1,9.3-.2,14.5.6,4.5-.9,10.1,2.4,13.7,7.2,7.7,8.2-11.5,9.1-15.1.5-1.9.4-3.1,2.3-3.7,2.1-.7,4.6,1.4,5,3.1C202.2,268.5,198,275.3,197.5,279.8Zm-18.9-13.9c0-.1-.3-.1-.6,0v-.1c.1,0,.2,0,0-.1a.45.45,0,0,0,0-.5c0-.2-.3-.4-.2-.5l.2-.2a1.27,1.27,0,0,0,.4-.7.45.45,0,0,0-.3-.6c0-.1-.2-.1-.3-.1-.3-.2.3-.6.4-.7.3-.3.3-.7-.2-1a.85.85,0,0,0-.7,0c-.2.2.1.4.1.6a1.27,1.27,0,0,1-.1.6c0,.2-.2.4.2.6-.1,0-.2,0-.2.1-.2.2.2.6.1.9s-.5.6-.6,1c-.1.2.2.4.4.6v.1c-.2.6-1,1.1-.5,1.7.1.1.6.1.6,0,.2-.2.2-.5.3-.8l.3-.3a2.2,2.2,0,0,0-.1.8,2.08,2.08,0,0,1-.5,1.2.92.92,0,0,0-.2,1c.2.2.2.4.3.6l.1.1c-.2-.1-.2-.2-.2-.2s-.4-.1-.4,0c-.2.2.1.3.3.5a.72.72,0,0,1,.4.6c-.2,0-.3,0-.4.1s-.1.2,0,.2a.37.37,0,0,1,.2.5h.1l-.2.6h-.2a.73.73,0,0,0-.2.6.61.61,0,0,0,.1.6c0,.2,0,.2-.1.3l-.2.2a1.07,1.07,0,0,0,.6.2v.1c0,.2.2.4.4.6a.1.1,0,0,0,.1-.1l-.3-.5h.4c.2-.2.2-.2,0-.3s.1-.3.1-.5-.2-.5-.1-.6.2-.5-.1-.6l.1-.1a3.55,3.55,0,0,0,.4-.9c.1-.3.3-.6,0-1-.1,0-.1-.1-.2-.1v-.1c0-.1.2-.2.2-.4s.1-.3-.1-.5a.9.9,0,0,1-.1-.5c0-.2.2-.4.3-.6a1.64,1.64,0,0,0,.2-1A2.21,2.21,0,0,0,178.6,265.9Zm1.1-10.1a1.7,1.7,0,0,0-1,0c0-.1,0-.1.1-.2l.2-.4a2.26,2.26,0,0,0-.4-.9c0-.1-.4-.1-.4,0a1.34,1.34,0,0,0-.2.9c0,.1-.1.2-.2.4s.2.2.2.4a1.33,1.33,0,0,0-.6.9,1,1,0,0,0-.2.7c0,.2.3.5.6.6v.1a14.68,14.68,0,0,0-.6,1.4c0,.2.1.5.1.7s0,.5.2.7c0,.1.2.1.2,0l.2-.4c0,.2.1.3.2.5a.64.64,0,0,0,.6,0,.73.73,0,0,0,.2-.6,2.35,2.35,0,0,1,.2-.8,1.48,1.48,0,0,0,0-1.3l-.3-.4c0-.1,0-.2.1-.2a4.34,4.34,0,0,1,.7-1.6C179.8,256.2,179.9,256,179.7,255.8Zm-1.8,19.5c-.1-.1-.4-.1-.4,0s.2.4.2.6c.1,0,.3,0,.3-.1A.44.44,0,0,0,177.9,275.3Zm1.3-13.2-.2-.5c0-.1-.4-.1-.4,0l-.2.4c0,.2.2.3,0,.5s-.4.5.2.7c0,0,.2,0,.2-.1-.2-.2-.3-.2-.1-.4a1.38,1.38,0,0,0,.4-.3C179.4,262.3,179.3,262.2,179.2,262.1Zm-.2,2.5c0-.2-.1-.6-.1-.8h-.2a2.2,2.2,0,0,0,.1.8Z" transform="translate(-49.1 -52.7)" fill="#d8615b"/><path d="M238.3,271.6c0,3,.6,6.2.4,9.1-.2,2.3-1,4.2-.6,6.7-8.5,6.9-7-12.3-7-16.7,0-2.5,1.2-14.3-.8-15.7-1.3-.9-5.8,1.4-6.8,1.9-2.8,1.4-2.8.7-3.3,4.3a50.44,50.44,0,0,0,.2,16.9c.5,2.6,1.9,5.2-1.8,6.4-1.3.4-4.1-.6-5.2-1.4-3.1-2.3-2.2-8.6-2.3-12.4-.2-5.6.2-11.3.2-17,.1-4.8-.1-9.7-.2-14.4-.1-2.4,0-4.9-.1-7.3-.2-1.8-1.3-4.3-1-5.9.6-3.2,5.5-4.7,8-2.8,3.4,2.3,1.4,10.6,1.8,14.3.2,2.4-.3,13,2,13.5,1,.2,6.8-2.2,7.6-2.9,2.2-1.9,1.7-4.3,1.7-7.1a147.75,147.75,0,0,0,.2-16.3c-.2-2.5-2-2.6,1.2-4.4a4.18,4.18,0,0,1,5.6,1.1c1.9,3.1.2,13,.2,16.6,0,6-.4,12-.4,18C237.9,261.3,238.3,266.4,238.3,271.6Zm-22.2-13.8a4.7,4.7,0,0,0-.6-.9v-.1a6.07,6.07,0,0,0,.5-1.8,4.4,4.4,0,0,0-.2-1,1.8,1.8,0,0,0-.1-1c-.1-.1-.2-.1-.2,0a.73.73,0,0,0-.2.6,1.42,1.42,0,0,0-.2-.6c-.1-.1-.6-.1-.6,0l-.2.9a3.55,3.55,0,0,1-.2,1,2.5,2.5,0,0,0,.1,1.7c.1.2.2.3.3.5s0,.2-.1.3a8.3,8.3,0,0,1-.6,2.1.49.49,0,0,0-.1.7c.2.2.7.1,1,0,0,.1,0,.2-.1.2a1.42,1.42,0,0,0-.2.6,3.37,3.37,0,0,0,.4,1.2s.4.1.4,0a2.54,2.54,0,0,0,.2-1.2c0-.2.1-.3.1-.6s-.1-.3-.2-.5a1.91,1.91,0,0,0,.7-1.2C216,258.4,216.1,258.1,216.1,257.8Zm-2.3-5.8c.2.2.1.4.2.6s.4.1.4,0l.2-.5c0-.2-.2-.5,0-.7.2-.4.4-.6-.2-.9-.1,0-.3,0-.2.1s.3.3.1.6-.3.2-.4.4C213.6,251.8,213.7,251.8,213.8,252Zm.1-3.4a4.4,4.4,0,0,1,.2,1h.2a3.75,3.75,0,0,0-.1-1Zm1.8-1.3h0c.2-.8.9-1.5.4-2.3,0-.1-.5-.1-.6,0-.3.3-.2.7-.4,1,0,.2-.2.3-.2.5a3.08,3.08,0,0,1,.1-1c.1-.6,0-1.1.4-1.6a1.58,1.58,0,0,0,.2-1.3c-.2-.2-.2-.5-.3-.7a.35.35,0,0,1-.1-.2c.2.2.2.2.2.4s.4.1.4,0c.2-.2-.1-.5-.4-.7a1.08,1.08,0,0,1-.3-.7.52.52,0,0,0,.4-.2c.2-.1.1-.2,0-.3s-.3-.4-.2-.6a.1.1,0,0,0-.1-.1c0-.2.2-.6.2-.8.2,0,.2,0,.2-.1a1,1,0,0,0,.2-.7,1.13,1.13,0,0,0-.1-.8c0-.2,0-.2.2-.4a.31.31,0,0,0,.1-.2c0-.2-.3-.2-.6-.3,0,0,.1-.1,0-.1a1.91,1.91,0,0,0-.3-.8H215c0,.2.2.5.2.7-.1-.1-.3-.1-.3,0-.2.2-.2.2-.1.4.3.2-.1.4-.1.6a1.34,1.34,0,0,1,.1.9c0,.2-.2.6.1.8l-.1.1a5.64,5.64,0,0,0-.4,1.2c-.1.3-.3.8,0,1.1a.22.22,0,0,0,.2.2c0,.2-.2.3-.2.6a.62.62,0,0,0,.1.7,1.27,1.27,0,0,1,.1.6c.1.3-.2.6-.2.8a3.18,3.18,0,0,0-.2,1.4,3,3,0,0,0,.2,1.6c0,.1.4.1.6.1-.1,0-.1.1,0,.1v.7c.1.2.3.5.2.6a.22.22,0,0,1-.2.2,1.69,1.69,0,0,0-.3,1c0,.3,0,.7.3.9a.37.37,0,0,0,.3.1c.3.2-.2.7-.3,1a1,1,0,0,0,.2,1.3,1.1,1.1,0,0,0,.8,0c.1-.3-.2-.6-.2-.8v-.6a.55.55,0,0,0-.2-.8c.2,0,.2,0,.2-.1.2-.4-.1-.8-.1-1.1.1-.5.5-1,.6-1.4-.1-.4-.4-.6-.6-.9Zm-.8-12.6c.1.1.4.1.4,0s-.2-.5-.2-.7-.2-.1-.2,0h-.1C214.8,234.2,214.9,234.5,214.9,234.7Zm.4,27.6h-.2c.1,0,.1.1.2,0Z" transform="translate(-49.1 -52.7)" fill="#d8615b"/><path d="M274.9,256.7c-.2,5.7-2,35.7-13.6,29.1-1-.6-1.4-1.8-2.3-2.3-1.1-.6-2.5-.3-3.5-1-3.1-1.8-4.7-5.6-5.6-8.9-1.7-6.3-.1-14.2-2.3-20.2,1.9-.9,1.4-6.8,1.6-8.3a44.46,44.46,0,0,1,2.1-12c.9-2.7,1.9-6.2,4-8.3,2.8-2.9,6.8-2.2,10.5-2,3.9.2,4.6.8,6.4,4.3a22.64,22.64,0,0,1,2.9,10.1C275.1,243.6,275.1,250.3,274.9,256.7Zm-9.5-15.6c0-4.7-.2-7.8-1.8-12.4-8.1,3.5-6.7,14.2-7.2,21.8a84.17,84.17,0,0,0,.1,12.3c.4,3.8,3.5,10.4,3,13.4,3.7,2.2,4.2-1.4,4.9-4.7a84.59,84.59,0,0,0,1.6-14.2C266.3,251.8,265.4,246.5,265.4,241.1Zm6.6,14.7a.61.61,0,0,0-.6-.1c.1-.1.1-.1,0-.2v-.7c0-.2-.3-.4-.1-.6v-.1a.22.22,0,0,1,.2-.2,1.78,1.78,0,0,0,.4-1,1.56,1.56,0,0,0-.3-1,.37.37,0,0,1-.3-.1c-.3-.2.2-.7.4-.9a1.21,1.21,0,0,0-.2-1.4c-.2-.1-.7-.1-.7.1-.2.2.1.5.1.7a1.7,1.7,0,0,1-.1.7c0,.2-.2.6.2.7-.2.1-.2.1-.2.2-.2.3.1.7,0,1.1s-.5.9-.6,1.4c-.1.2.2.6.3.8a.1.1,0,0,1,.1.1c-.2.8-1,1.4-.6,2.3,0,.1.5.1.6,0,.3-.3.2-.6.4-1l.3-.5-.2,1a2.45,2.45,0,0,1-.6,1.6,1.09,1.09,0,0,0-.2,1.2c0,.2.1.4.1.6-.1-.1-.3-.2-.4-.1s.1.5.3.7a.83.83,0,0,1,.2.8c-.2,0-.3,0-.4.1s-.1.2,0,.3a2.07,2.07,0,0,1,.2.6c0,.1,0,.1.1.1-.2.2-.2.5-.3.7-.2,0-.2,0-.2.1-.2.2-.2.4-.3.6a1.2,1.2,0,0,0-.2.8c0,.2,0,.2-.2.4s-.2.1-.2.2.3.2.4.4v.1c0,.2,0,.3.1.4s.1.3.1.4.2.1.2.1c0-.2-.2-.5-.2-.7.1,0,.3.1.4.1s.2-.2.1-.4.2-.3.2-.6a2.77,2.77,0,0,1,.1-.9c.1-.2.3-.6.1-.8v-.1a.1.1,0,0,0,.1-.1,2.38,2.38,0,0,0,.6-1.1c.2-.3.4-.8.2-1.1a.22.22,0,0,0-.2-.2h.1c-.1-.2.2-.3.2-.6a.85.85,0,0,0,0-.7c0-.2-.1-.4-.1-.6a2.51,2.51,0,0,1,.4-.7,7,7,0,0,0,.3-1.4A4,4,0,0,0,272,255.8Zm-2.4,12.1c0-.1-.4-.2-.4-.1v.7c0,.1.2.2.2.1C269.6,268.5,269.6,268.2,269.6,267.9Zm.8-7.2Zm.1,0c0,.1,0,.2.1.2a.35.35,0,0,1,.1.2C270.5,260.9,270.4,260.8,270.5,260.7Zm2.4-18.5c-.2-.2-.7-.1-1,0,.1,0,.1-.1.1-.2a1.07,1.07,0,0,0,.2-.6,3.85,3.85,0,0,0-.5-1.2c-.1,0-.4,0-.4.1a2.34,2.34,0,0,0-.2,1.1c.1.2,0,.4,0,.6s.2.3.2.5a2.55,2.55,0,0,0-.6,1.3,1.41,1.41,0,0,0-.1.9c0,.4.3.6.6.9v.1a6.69,6.69,0,0,0-.5,1.9,3.75,3.75,0,0,0,.1,1c.1.3,0,.6.2,1,0,.1.2.1.2,0s.1-.2.2-.4a1.42,1.42,0,0,0,.2.6c.1.1.6,0,.6-.1a1.2,1.2,0,0,0,.2-.8l.2-1.1a3.67,3.67,0,0,0-.1-1.8,1.76,1.76,0,0,0-.4-.5c0-.1.1-.2.1-.3a10.41,10.41,0,0,1,.6-2.2C273,242.7,273.2,242.3,272.9,242.2Zm-1.8-2Zm1.6,10.5c-.2-.2-.1-.4-.2-.6s-.4-.1-.4,0l-.2.5c0,.2.2.5,0,.7-.2.4-.4.6.2.9h.2c-.2-.2-.3-.4-.1-.6a.78.78,0,0,0,.4-.4C272.8,251,272.8,250.9,272.7,250.7Zm-.2,3.5-.2-1c0-.1-.1-.1-.1,0a3.33,3.33,0,0,0,0,1Z" transform="translate(-49.1 -52.7)" fill="#d8615b"/><path d="M309.8,279.8c-.5,4.7-1,5.2-5.2,7.1-4.4,1.9-9.4,3.7-13.9.6-6.4-4.4-3.6-16.6-4.4-23.4-1.3-10.1-1.3-23.7,1.9-33.5,3.4-10.4,14.9-13.3,23.1-6.4a.35.35,0,0,0,.2.1c.2,5.1,4.7,24.9-3.2,24.4-6.5-.4-4.9-4.9-4.7-9.1.2-3,.6-12.4-3.9-11.9-7.1.7-4.1,19.2-4.5,24-.3,5.2-1,9.3-.2,14.5.6,4.5-.9,10.1,2.4,13.7,7.2,7.7,8.2-11.5,9.1-15.1.5-1.9.4-3.1,2.3-3.7,2.1-.7,4.6,1.4,5,3.1C314.4,268.5,310.2,275.3,309.8,279.8Zm-19-13.9c0-.1-.3-.1-.6,0v-.1c.1,0,.2,0,0-.1a.45.45,0,0,0,0-.5c0-.2-.3-.4-.2-.5l.2-.2a1.27,1.27,0,0,0,.4-.7.45.45,0,0,0-.3-.6c0-.1-.2-.1-.3-.1-.3-.2.3-.6.4-.7.3-.3.3-.7-.2-1a.85.85,0,0,0-.7,0c-.2.2.1.4.1.6a1.27,1.27,0,0,1-.1.6c0,.2-.2.4.2.6-.1,0-.2,0-.2.1-.2.2.2.6.1.9s-.5.6-.6,1c-.1.2.2.4.4.6v.1c-.2.6-1,1.1-.5,1.7.1.1.6.1.6,0,.2-.2.2-.5.3-.8l.3-.3a2.2,2.2,0,0,0-.1.8,2.08,2.08,0,0,1-.5,1.2.92.92,0,0,0-.2,1c.2.2.2.4.3.6l.1.1c-.2-.1-.2-.2-.2-.2s-.4-.1-.4,0c-.2.2.1.3.3.5a.72.72,0,0,1,.4.6c-.2,0-.3,0-.4.1s-.1.2,0,.2a.37.37,0,0,1,.2.5h.1l-.2.6h-.2a.73.73,0,0,0-.2.6.61.61,0,0,0,.1.6c0,.2,0,.2-.1.3l-.2.2a1.07,1.07,0,0,0,.6.2v.1c0,.2.2.4.4.6a.1.1,0,0,0,.1-.1l-.3-.5h.4c.2-.2.2-.2,0-.3s.1-.3.1-.5-.2-.5-.1-.6.2-.5-.1-.6l.1-.1a3.55,3.55,0,0,0,.4-.9c.1-.3.3-.6,0-1-.1,0-.1-.1-.2-.1v-.1c0-.1.2-.2.2-.4s.1-.3-.1-.5a.9.9,0,0,1-.1-.5c0-.2.2-.4.3-.6a1.64,1.64,0,0,0,.2-1A2.21,2.21,0,0,0,290.8,265.9Zm1.1-10.1a1.7,1.7,0,0,0-1,0c0-.1,0-.1.1-.2l.2-.4a2.26,2.26,0,0,0-.4-.9c0-.1-.4-.1-.4,0a1.34,1.34,0,0,0-.2.9c0,.1-.1.2-.2.4s.2.2.2.4a1.33,1.33,0,0,0-.6.9,1,1,0,0,0-.2.7c0,.2.3.5.6.6v.1a14.67,14.67,0,0,0-.6,1.4c0,.2.1.5.1.7s0,.5.2.7c0,.1.2.1.2,0l.2-.4c0,.2.1.3.2.5a.64.64,0,0,0,.6,0,.73.73,0,0,0,.2-.6,2.35,2.35,0,0,1,.2-.8,1.48,1.48,0,0,0,0-1.3l-.3-.4c0-.1,0-.2.1-.2a4.34,4.34,0,0,1,.7-1.6C292,256.2,292.1,256,291.9,255.8Zm-1.8,19.5c-.1-.1-.4-.1-.4,0s.2.4.2.6c.1,0,.3,0,.3-.1A.44.44,0,0,0,290.1,275.3Zm1.3-13.2-.2-.5c0-.1-.4-.1-.4,0l-.2.4c0,.2.2.3,0,.5s-.4.5.2.7c0,0,.2,0,.2-.1-.2-.2-.3-.2-.1-.4a1.38,1.38,0,0,0,.4-.3C291.6,262.3,291.5,262.2,291.4,262.1Zm-.2,2.5c0-.2-.1-.6-.1-.8h-.2a2.2,2.2,0,0,0,.1.8Z" transform="translate(-49.1 -52.7)" fill="#d8615b"/><path d="M349.7,256.7c-.2,5.7-2,35.7-13.6,29.1-1-.6-1.4-1.8-2.3-2.3-1.1-.6-2.5-.3-3.5-1-3.1-1.8-4.7-5.6-5.6-8.9-1.7-6.3-.1-14.2-2.3-20.2,1.9-.9,1.4-6.8,1.6-8.3a44.46,44.46,0,0,1,2.1-12c.9-2.7,1.9-6.2,4-8.3,2.8-2.9,6.8-2.2,10.5-2,3.9.2,4.6.8,6.4,4.3a22.64,22.64,0,0,1,2.9,10.1C349.9,243.6,349.9,250.3,349.7,256.7Zm-9.5-15.6c0-4.7-.2-7.8-1.8-12.4-8.1,3.5-6.7,14.2-7.2,21.8a84.17,84.17,0,0,0,.1,12.3c.4,3.8,3.5,10.4,3,13.4,3.7,2.2,4.2-1.4,4.9-4.7a84.59,84.59,0,0,0,1.6-14.2C341.1,251.8,340.2,246.5,340.2,241.1Zm6.6,14.7a.61.61,0,0,0-.6-.1c.1-.1.1-.1,0-.2v-.7c0-.2-.3-.4-.1-.6v-.1a.22.22,0,0,1,.2-.2,1.78,1.78,0,0,0,.4-1,1.56,1.56,0,0,0-.3-1,.37.37,0,0,1-.3-.1c-.3-.2.2-.7.4-.9a1.21,1.21,0,0,0-.2-1.4c-.2-.1-.7-.1-.7.1-.2.2.1.5.1.7a1.7,1.7,0,0,1-.1.7c0,.2-.2.6.2.7-.2.1-.2.1-.2.2-.2.3.1.7,0,1.1s-.5.9-.6,1.4c-.1.2.2.6.3.8a.1.1,0,0,1,.1.1c-.2.8-1,1.4-.6,2.3,0,.1.5.1.6,0,.3-.3.2-.6.4-1l.3-.5-.2,1a2.45,2.45,0,0,1-.6,1.6,1.09,1.09,0,0,0-.2,1.2c0,.2.1.4.1.6-.1-.1-.3-.2-.4-.1s.1.5.3.7a.83.83,0,0,1,.2.8c-.2,0-.3,0-.4.1s-.1.2,0,.3a2.07,2.07,0,0,1,.2.6c0,.1,0,.1.1.1-.2.2-.2.5-.3.7-.2,0-.2,0-.2.1-.2.2-.2.4-.3.6a1.2,1.2,0,0,0-.2.8c0,.2,0,.2-.2.4s-.2.1-.2.2.3.2.4.4v.1c0,.2,0,.3.1.4s.1.3.1.4.2.1.2.1c0-.2-.2-.5-.2-.7.1,0,.3.1.4.1s.2-.2.1-.4.2-.3.2-.6a2.77,2.77,0,0,1,.1-.9c.1-.2.3-.6.1-.8v-.1a.1.1,0,0,0,.1-.1,2.38,2.38,0,0,0,.6-1.1c.2-.3.4-.8.2-1.1a.22.22,0,0,0-.2-.2h.1c-.1-.2.2-.3.2-.6a.85.85,0,0,0,0-.7c0-.2-.1-.4-.1-.6a2.51,2.51,0,0,1,.4-.7,7,7,0,0,0,.3-1.4A8.63,8.63,0,0,0,346.8,255.8Zm-2.4,12.1c0-.1-.4-.2-.4-.1v.7c0,.1.2.2.2.1C344.4,268.5,344.4,268.2,344.4,267.9Zm.8-7.2Zm0,0c0,.1,0,.2.1.2a.35.35,0,0,1,.1.2C345.2,260.9,345.2,260.8,345.2,260.7Zm2.5-18.5c-.2-.2-.7-.1-1,0,.1,0,.1-.1.1-.2a1.07,1.07,0,0,0,.2-.6,3.85,3.85,0,0,0-.5-1.2c-.1,0-.4,0-.4.1a2.34,2.34,0,0,0-.2,1.1c.1.2,0,.4,0,.6s.2.3.2.5a2.55,2.55,0,0,0-.6,1.3,1.41,1.41,0,0,0-.1.9c0,.4.3.6.6.9v.1a6.69,6.69,0,0,0-.5,1.9,3.75,3.75,0,0,0,.1,1c.1.3,0,.6.2,1,0,.1.2.1.2,0s.1-.2.2-.4a1.42,1.42,0,0,0,.2.6c.1.1.6,0,.6-.1a1.2,1.2,0,0,0,.2-.8l.2-1.1a3.67,3.67,0,0,0-.1-1.8,1.76,1.76,0,0,0-.4-.5c0-.1.1-.2.1-.3a10.41,10.41,0,0,1,.6-2.2C347.7,242.7,348,242.3,347.7,242.2Zm-1.8-2Zm1.6,10.5c-.2-.2-.1-.4-.2-.6s-.4-.1-.4,0l-.2.5c0,.2.2.5,0,.7-.2.4-.4.6.2.9h.2c-.2-.2-.3-.4-.1-.6a.78.78,0,0,0,.4-.4C347.6,251,347.6,250.9,347.5,250.7Zm-.2,3.5-.2-1c0-.1-.1-.1-.1,0a3.33,3.33,0,0,0,0,1Z" transform="translate(-49.1 -52.7)" fill="#d8615b"/><path d="M381.1,288.7c-4.5,0-8.9,1.4-13.2,1.4-9.4-.2-6.4-7.4-6.4-14.2,0-8.7-.2-17.5-.3-26.2,0-7.8,1-16.8-1.5-24.3a.35.35,0,0,1,.1-.2c1.4-2.9,6.9-2.6,8.7-.2s.7,7.1.9,9.8c.6,7.3.8,14.8,1,22.1.2,7,0,13.9.6,21,.3,4-.4,4.3,3.6,4.7,2.7.2,9-.6,10.9,2C388.4,288.5,384,288.6,381.1,288.7Zm-13.9-16.3c0-.2-.3-.4-.6-.6l.1-.1a4.28,4.28,0,0,0,.5-1.3,1.7,1.7,0,0,0-.1-.7c0-.2,0-.5-.1-.6a.19.19,0,0,0-.3,0l-.2.4c0-.2-.1-.3-.2-.5s-.6-.1-.6,0l-.2.6-.2.7a1.29,1.29,0,0,0,.1,1.2c0,.2.2.2.3.3a.35.35,0,0,1-.1.2,2.85,2.85,0,0,1-.8,1.4c-.1.2-.3.4-.1.5a1.15,1.15,0,0,0,1,.1c0,.1,0,.1-.1.2s-.2.2-.2.3.2.6.3.9h.4a.83.83,0,0,0,.2-.8.52.52,0,0,1,.2-.4c0-.2-.2-.2-.2-.4a1.27,1.27,0,0,0,.7-.8A1.07,1.07,0,0,0,367.2,272.4Zm-2.1-4.1c.2.2.1.3.2.5h.4c.1-.2.2-.2.2-.4s-.2-.3,0-.5.4-.4-.2-.6c0,0-.2,0-.2.1.2.1.3.2.1.4a1.24,1.24,0,0,0-.3.2C365,268.1,365,268.2,365.1,268.3Zm.2-12.7.2.2c.1,0,.4-.1.4-.2l-.2-.2-.2-.2a.35.35,0,0,0-.2.1C365.2,255.5,365.2,255.5,365.3,255.6Zm0,10.3.2.6c0,.1.1.1.1,0a1.7,1.7,0,0,0-.1-.7C365.5,265.9,365.3,265.9,365.3,265.9Zm1.8-1.1c.1-.6.9-1.1.4-1.6-.1-.1-.6,0-.6.1-.2.2-.2.5-.3.7l-.2.3a1.7,1.7,0,0,1,.1-.7,1.8,1.8,0,0,1,.3-1.2.8.8,0,0,0,.2-.9,1.33,1.33,0,0,1-.3-.5l-.1-.1a.22.22,0,0,1,.2.2c-.1,0,.3,0,.4-.1s-.2-.3-.4-.5a.51.51,0,0,1-.4-.5.52.52,0,0,0,.4-.2c.2-.1.1-.2,0-.2-.2-.2-.3-.3-.3-.5h-.1a1.42,1.42,0,0,0,.2-.6l.2-.1c.2-.2.1-.4.2-.6s-.1-.5-.1-.6-.1-.2,0-.4a.31.31,0,0,0,.1-.2c-.1-.2-.4-.2-.6-.2v-.1c-.1-.2-.3-.3-.6-.5h-.1c.1.2.3.3.5.5-.2,0-.3,0-.4.1s-.2.2,0,.3c.4.1,0,.3.1.5a1.42,1.42,0,0,1,.2.6c-.1.2-.2.5,0,.6h.1l-.1.1a1.61,1.61,0,0,0-.3.9c-.1.2-.2.6,0,.8l.2.2h-.1c.1.1-.1.2-.1.4s-.1.3.1.5.2.3.2.5-.2.3-.3.5a2,2,0,0,0-.2,1,1.54,1.54,0,0,0,.2,1.1c0,.1.2.1.5.1,0,.2.1.4.1.6s.3.2.2.4l-.2.2a2.09,2.09,0,0,0-.4.6.62.62,0,0,0,.4.6,1,1,0,0,0,.3.1c.3.1-.3.5-.4.6a.59.59,0,0,0,.2.9,1.1,1.1,0,0,0,.8,0c.1-.2-.2-.4-.2-.6a.9.9,0,0,1,.1-.5c0-.2.2-.4-.2-.6.1,0,.2,0,.2-.1.2-.2-.2-.5-.1-.8s.4-.6.5-1c0,.4-.3.1-.5-.1Z" transform="translate(-49.1 -52.7)" fill="#d8615b"/><path d="M419.8,286.2c-2.1,1.6-4.8,2.7-6.7,1.3-.7-.5-1.4-3.6-1.4-5.6a21.14,21.14,0,0,0-1-6.6c-1.9,1-3.9,1.4-5.8,2.4-3.1,1.5-1.7-.6-2.3,3-.4,2.5.2,5-1.1,6.8-1.9,2.6-4.7,1.8-6.4-.2-2.1-2.5-1.6-6.1-1.4-9.2.6-9.3,3.5-18.4,5.4-27.5a187,187,0,0,1,5.1-21.2c1-3,1.4-4.9,4.8-5.8,2.8-.7,6-.1,6.8,2.9.2.6-1.1,4.5-1.2,5.2a34.35,34.35,0,0,0,.4,5.6c.2,4,.1,8.1.3,12.2.3,5.8-.1,8.5.7,14.2.5,3.3,1.4,8.9,1.6,12.2.2,3.5,2,6.8,2.2,10.1ZM402,261.9a1.7,1.7,0,0,0-1,0v-.1c.1-.2.2-.3.2-.4s-.1-.3-.2-.5a.78.78,0,0,0-.4-.4c0-.1-.3,0-.3.1a.8.8,0,0,0-.1.8c0,.2-.1.3-.1.4s.2.2.2.3a1.4,1.4,0,0,0-.7.9.73.73,0,0,0-.2.6c0,.2.3.4.6.6v.1c-.2.4-.6.8-.6,1.2-.1.2,0,.5,0,.6s-.1.5,0,.7a.1.1,0,0,0,.1.1h-.3c-.2.2.1.4.1.6l-.2.5c-.1.1-.2.4.2.6h-.2c-.2.2,0,.6-.1.8s-.6.6-.7.9.2.4.3.6,0,.1.1.1l-.1.1c-.2.5-1.1.9-.7,1.4.1.1.6.2.6.1.3-.2.2-.4.5-.6l.3-.3-.2.7c-.2.4-.2.8-.6,1a.61.61,0,0,0-.3.9l.2.6v.1c-.1-.1-.2-.2-.2-.3a2.27,2.27,0,0,0-.4-.1c-.2.2,0,.4.2.6s.3.4.2.6c-.2-.1-.3-.1-.4,0s-.1.2,0,.2c.1.2.2.4.1.5a.1.1,0,0,0,.1.1c-.1.2-.2.3-.3.5h-.2a1.33,1.33,0,0,0-.3.5,1.27,1.27,0,0,0-.1.6c0,.2,0,.2-.2.3a.35.35,0,0,0-.2.1c0,.2.3.2.5.3v.1c0,.2.2.4.2.6h.1c0-.2-.2-.4-.2-.6a.6.6,0,0,0,.4.1c.2-.1.2-.1.1-.2-.3-.2.2-.2.2-.4s0-.5.1-.6.3-.3.1-.6H398l.2-.1c.2-.2.4-.5.6-.7s.4-.6.2-.8a.22.22,0,0,0-.2-.2c.1,0,.1,0,.1-.1s.2-.2.2-.3.2-.3.1-.5-.1-.3,0-.5.2-.3.4-.5.2-.6.3-.9a2.54,2.54,0,0,0,.2-1.2c0-.1-.4-.1-.6-.1.1-.1.1-.1,0-.1a1.27,1.27,0,0,0,.1-.6c0-.1-.2-.3-.1-.4l.2-.2c.2-.2.5-.4.6-.6a1,1,0,0,0-.2-.7.37.37,0,0,1-.3-.1c-.3-.2.3-.5.5-.6.3-.3.3-.6-.2-1-.1,0-.2-.1-.3-.1l.1-.1.2-.3a.76.76,0,0,0,.2.5.64.64,0,0,0,.6,0,1.14,1.14,0,0,0,.3-.6l.2-.7a1.72,1.72,0,0,0,.2-1.2.1.1,0,0,1-.1-.1v-.1h-.1l-.2-.2a.35.35,0,0,1,.1-.2,4,4,0,0,1,.9-1.5C402.1,262.3,402.3,262.1,402,261.9Zm-4.7,18c0-.1-.3-.2-.3-.1s.1.4.1.6a1,1,0,0,1,.3.1A.61.61,0,0,0,397.3,279.9ZM401,268a.9.9,0,0,1-.1-.5c-.1-.1-.4-.2-.4-.1s-.2.2-.2.3.1.4-.2.5-.4.4.2.6c0,.1.3.1.2,0s-.3-.2,0-.4.3-.1.4-.2S401.1,268.1,401,268Zm-.7-7.5s0-.1-.2,0Zm.2,9.9v-.7c0-.1-.1-.1-.2-.1a2.13,2.13,0,0,0,0,.8Zm9.8-11.1c-.2-5.6.6-12.6-1.4-17.9-1.8,1.2-2.2,10.4-2.7,12.6a114,114,0,0,0-2.1,15.4C411.5,269.4,410.5,265.5,410.3,259.3Z" transform="translate(-49.1 -52.7)" fill="#d8615b"/><path d="M452.4,227.4c-4.2.2-6.1-.4-6.5,3.9-.5,4.7-.1,9.8,0,14.6.1,9.5.8,18.9,1,28.4.1,3.5,2.3,10.8-1.1,12.5-2.5,1.2-6.5-.6-7.5-3.2-1.1-2.8.5-8.7.3-11.8-.2-3.9-.1-7.9-.1-11.9-.1-5.2.1-10.2-.1-15.4-.1-4.2.8-9.6-.2-13.6.2,1-.8-.6-.2-.5-3.6-1.9-9.7,2.4-13.4-.8-1.7-1.4-1.8-4.9-.6-6.5,2-2.9,6.6.6,9.8.2a20.17,20.17,0,0,0,5.6-1.6c3.5-1.4,4.1-.7,7.6-1,3.7-.2,8.5-3.1,11.4,1.2C462.4,227.3,455.8,227.3,452.4,227.4Zm-9.2,17.1c-.2-.2-.7-.1-1,0,0-.1,0-.2.1-.2a1.42,1.42,0,0,1,.2-.6,2.84,2.84,0,0,0-.4-1.2h-.5a5,5,0,0,0-.2,1.2c.1.2,0,.3,0,.6s.1.3.2.5a1.41,1.41,0,0,0-.6,1.2,1.64,1.64,0,0,0-.2,1c0,.4.3.6.6.9v.1a5.85,5.85,0,0,0-.4,1.9c0,.3.1.6.1.9s.1.6.2,1c0,.1.2.1.2,0l.2-.6a1.07,1.07,0,0,0,.2.6c.1.1.6.1.6-.1l.2-.8a3,3,0,0,1,.2-1,2.46,2.46,0,0,0-.2-1.7,1,1,0,0,0-.4-.5.6.6,0,0,0,.1-.4,9.65,9.65,0,0,1,.6-2.1C443.3,245,443.4,244.7,443.2,244.5Zm-.2,19.1-.2-.2a1.42,1.42,0,0,1,.2-.6,1,1,0,0,0-.2-.7,1.42,1.42,0,0,1-.2-.6,2.12,2.12,0,0,1,.3-.7,3.44,3.44,0,0,0,.1-1.4,2.19,2.19,0,0,0-.2-1.6c-.1-.2-.4-.2-.6-.1.1-.1.1-.1,0-.1a1.7,1.7,0,0,0-.1-.7c0-.2-.3-.5-.2-.6a.22.22,0,0,1,.2-.2,1.93,1.93,0,0,0,.3-1,1.43,1.43,0,0,0-.4-1h-.3c-.3-.2.2-.7.3-1a1,1,0,0,0-.3-1.3c-.2-.1-.7-.1-.7.1-.2.2.1.5.2.7a1.7,1.7,0,0,1-.1.7c0,.2-.1.6.3.7-.2,0-.2.1-.2.1-.2.4.2.8.2,1.2s-.5.9-.5,1.4c-.1.2.2.5.4.7a.1.1,0,0,0,.1.1v.1c-.2.7-.9,1.5-.3,2.3,0,.1.5,0,.6-.1a2.93,2.93,0,0,0,.3-1l.2-.5v1a3.53,3.53,0,0,1-.4,1.7,1.67,1.67,0,0,0-.1,1.2l.2.5c-.1-.1-.4,0-.5.1s.2.4.4.6a.87.87,0,0,1,.4.7.52.52,0,0,0-.4.2c-.2.1,0,.2.1.3s.3.4.2.6a.1.1,0,0,0,.1.1,2.35,2.35,0,0,1-.2.8.35.35,0,0,0-.2.1c-.2.2-.1.5-.2.7s.1.6.1.9.1.2-.1.4a.31.31,0,0,0-.1.2c0,.2.3.2.6.2v.2a1.27,1.27,0,0,0,.4.7h.1l-.3-.7c.1.1.3,0,.4,0,.2-.2.2-.2,0-.4s.1-.4,0-.6a1.34,1.34,0,0,1-.1-.9c0-.2.2-.6-.1-.8h-.1a.1.1,0,0,0,.1-.1,5.64,5.64,0,0,0,.4-1.2C443,264.5,443.3,263.9,443,263.6Zm-1.6-21.1h.2a.14.14,0,0,0-.2,0Zm.8,20.5v.2c-.1-.2-.2-.2-.2-.4Zm1-10.2a1,1,0,0,1-.2-.7s-.4,0-.4.1a.9.9,0,0,0-.1.5c0,.2.2.5,0,.7s-.4.6.2.8c.1.1.3,0,.2,0-.2-.2-.3-.4-.1-.6l.4-.4A.3.3,0,0,0,443.2,252.8Zm-.4,17.3c-.1-.1-.4-.1-.4,0s.2.5.3.7.2,0,.2,0C443,270.6,442.9,270.4,442.8,270.1Zm.4-14-.2-1a.1.1,0,0,0-.1.1,3.75,3.75,0,0,0,.1,1Z" transform="translate(-49.1 -52.7)" fill="#d8615b"/><path d="M485.3,245c3.2-3.5,4.2-12.6-.7-15.5-7.9-4.8-6.5,10-6.5,13.5.1,12.1,11.4,22,11.9,34,.6,13.5-20.8,16.7-24.4,3.7-.6-1.8.6-4,0-5.6-.2-.7-1.7-1.2-1.8-1.9-.6-3.4,3.5-5.3,7-4.7,4.3.7,2.5,2.4,2,5.9-.4,2.9-.3,6.2,2.6,8,13.1-2.1-6.5-28.7-7.3-34.9-.7-5.4.2-16.2,4.1-20.3,5.6-5.6,16.3-3.6,21.3,1.3C494.3,233.2,495.3,254.7,485.3,245Zm-10.9,4.7c0-.1-.1-.1-.1-.2s-.1-.1-.2-.1l-.2-.3a.22.22,0,0,0-.2.2c0,.1.1.2.2.3a.35.35,0,0,1,.1.2c.1,0,.1,0,.2.1C474.2,249.8,474.5,249.8,474.4,249.7Zm3.4,5.4c-.3-.1-.6-.2-.7-.5q.3-.15.3-.3c.1-.2-.1-.2-.2-.2s-.5-.2-.6-.4h-.1l-.2-.7c.1-.1.1-.2.2-.2,0-.3-.2-.5-.2-.7a1.54,1.54,0,0,0-.4-.6c-.1-.2-.2-.2-.2-.4s.1-.2,0-.2-.4,0-.6,0-.1,0-.1-.1l-.3-.2c-.1,0-.2-.1-.3-.2a.1.1,0,0,0-.1.1l.6.4c-.1,0-.3.1-.3.2s-.1.3.2.3.1.4.2.6a2.65,2.65,0,0,1,.5.6c.1.2.1.6.5.6v.2c0,.4.2.8.2,1.2.2.3.2.8.6,1h.2v.1a.9.9,0,0,1,.1.5c.1.2.2.5.4.6s.3.2.4.5.1.5.1.8a6.11,6.11,0,0,0,.3,1.3,3.92,3.92,0,0,0,.8,1.4c0,.1.3-.1.5-.2v.1c0,.1,0,.1.1.1l.3.6c.1.2.4.2.3.5v.3a1.7,1.7,0,0,0,0,1c.1.2.2.6.6.6.1.1.2,0,.3,0,.4.1.1.7,0,1-.1.5.1,1,.7,1a.19.19,0,0,0,.3,0,.1.1,0,0,0-.1.1v.6a1.76,1.76,0,0,0-.4-.5c-.1-.1-.6.2-.6.2-.1.3.1.6.1.8l.2,1a3.09,3.09,0,0,0,.2.8c.1.2.2.5.3.7l.5.3v1.4a4.4,4.4,0,0,1-.2,1c-.1.2-.2.6.1.6a1.86,1.86,0,0,0,1-.1v.2a.9.9,0,0,0-.1.5c0,.2.1.3.2.6s.2.3.3.5.3.1.4,0a2.16,2.16,0,0,0,.1-1.1c-.1-.2,0-.4,0-.6s-.2-.3-.3-.4a2,2,0,0,0,.4-1.4,1.7,1.7,0,0,0,0-1,2,2,0,0,0-.9-.6v-.1a.9.9,0,0,1,.1-.5v-.5a2.77,2.77,0,0,0-.1-.9,3.55,3.55,0,0,0-.4-.9c-.2-.2-.2-.6-.5-.8h-.2a.37.37,0,0,0,.3-.2c.1-.3-.2-.5-.3-.6a.85.85,0,0,1-.2-.6c0-.2-.1-.6-.5-.6.1-.1.2-.1.2-.2.1-.4-.4-.6-.5-1s.1-1,0-1.4-.5-.4-.7-.6a.1.1,0,0,0-.1-.1,4.82,4.82,0,0,1,0-1.2,1,1,0,0,0-.5-1c-.1-.1-.5.2-.6.2-.1.4.2.7.1,1v.6l-.4-1a2.19,2.19,0,0,1-.2-1.6c.1-.2,0-.5,0-.6s-.1-.1-.1-.2-.1-.1-.1-.2l-.2-.2a1.38,1.38,0,0,1-.4-.3c0,.1.4-.2.4-.2C478.5,255.1,478.1,255.1,477.8,255.1Zm.3.6a.22.22,0,0,1-.2-.2c-.1,0-.1-.1-.2-.1C477.9,255.5,478.1,255.6,478.1,255.7Zm2,7.2c-.2-.2-.2-.6-.5-.8,0-.1-.2,0-.2.1a3.51,3.51,0,0,1,.5.8C480,263,480.1,263,480.1,262.9Zm1.2,2.6a.9.9,0,0,0-.1-.5c-.1-.2-.3-.4-.2-.6.2-.5.2-.6-.5-.7-.1,0-.3.1-.2.2.3.1.5.2.3.5s-.2.3-.2.5.1.2.2.3a3.11,3.11,0,0,1,.4.6C481,265.7,481.3,265.6,481.3,265.5Zm2.8,8.8c0,.1.1.1.2.1C484.2,274.4,484.2,274.3,484.1,274.3Z" transform="translate(-49.1 -52.7)" fill="#d8615b"/><path d="M549.9,255.7c-1.5,7.2-2.8,13.8-6.6,20.3-1.8,3.2-3.9,6.4-6,9.4.2-.3-4.2,6.2-4.8,3.3-9,1.6-8-4-8.2-10.9-.3-7.9-.7-15.7-.8-23.6-.2-8.6-.2-17.1.2-25.8.1-2.8-.6-4.7,3.9-4.6,1.4,0,2.1.8,3.3,1.1,2.8.7,3.5.5,6.3.3C555.2,224.6,552.3,243.7,549.9,255.7Zm-21.1,3.9a2.1,2.1,0,0,0-.6-.8v-.1a4.94,4.94,0,0,0,.5-1.6,2.77,2.77,0,0,0-.1-.9c-.1-.2,0-.6-.2-.8,0-.1-.2-.1-.2,0s-.2.3-.2.5l-.3-.6a.64.64,0,0,0-.6,0,1.2,1.2,0,0,0-.2.8l-.2,1a1.69,1.69,0,0,0,.1,1.4,1.76,1.76,0,0,0,.4.5l-.2.3a8.24,8.24,0,0,1-.6,1.9c-.2.2-.3.4-.1.6a1.15,1.15,0,0,0,1,.1c-.1,0-.1.1-.1.2s-.2.2-.2.4.2.7.3,1.1c.1,0,.4.1.4,0a1.23,1.23,0,0,0,.2-1c0-.2.1-.3.1-.5s-.1-.3-.2-.5a1.82,1.82,0,0,0,.7-1A1.56,1.56,0,0,0,528.8,259.6Zm-2.2-5.3a.73.73,0,0,1,.2.6h.4a.9.9,0,0,0,.1-.5c.1-.2-.2-.4,0-.6s.4-.5-.2-.8c-.1,0-.3,0-.2.1s.3.3.1.5-.3.2-.4.4S526.5,254.3,526.6,254.3Zm.2-2.9a2.92,2.92,0,0,1,.2.9c0,.1.2.1.2,0a2.77,2.77,0,0,0-.1-.9C526.9,251.3,526.8,251.4,526.8,251.4Zm1.8-1.3c.2-.7.9-1.4.5-2-.1-.1-.6-.1-.6,0-.3.3-.2.6-.3,1-.1.2-.2.2-.3.3a2.48,2.48,0,0,0,.1-.9,3.25,3.25,0,0,1,.4-1.4.81.81,0,0,0,.2-1.1l-.2-.6a.35.35,0,0,0,.1.2s.4.1.5,0-.2-.4-.4-.6a.86.86,0,0,1-.3-.6.52.52,0,0,0,.4-.2c.2-.1.1-.2,0-.2-.2-.2-.3-.4-.2-.6a.1.1,0,0,0-.1-.1l.2-.6a.35.35,0,0,0,.2-.1.85.85,0,0,0,.2-.6c.2-.2,0-.5,0-.7s0-.2.2-.4.1-.1.1-.2-.3-.2-.5-.3v-.1a1.14,1.14,0,0,0-.3-.6c0-.1-.2-.1-.2-.1l.3.6H528q-.3.15,0,.3c.2.2-.2.4-.2.6a2.2,2.2,0,0,1,.1.8c-.1.2-.3.5,0,.7,0,.1,0,.1-.1.1a4.18,4.18,0,0,0-.4,1c-.1.3-.3.8-.1,1l.2.2a.1.1,0,0,1-.1.1c.1.2-.1.3-.1.5a.64.64,0,0,0,0,.6,1.07,1.07,0,0,1,.2.6c0,.2-.2.4-.3.6a2.74,2.74,0,0,0-.2,1.2,1.93,1.93,0,0,0,.1,1.5c0,.1.4.1.6,0v.1c-.1,0-.1,0,0,.1v.6c0,.2.3.4.2.5v.1a.22.22,0,0,1-.2.2,1.33,1.33,0,0,0-.3.8.83.83,0,0,0,.3.8.37.37,0,0,0,.3.1c.3.2-.2.6-.4.9a.75.75,0,0,0,.3,1.1.85.85,0,0,0,.7,0c.2-.2-.1-.5-.2-.7s.1-.4.1-.6.2-.6-.2-.7a.35.35,0,0,0,.2-.1c.2-.3-.2-.7-.1-1s.5-.8.6-1.2-.2-.6-.4-.9Zm-.7,13.5Zm.2-24.7c0,.1.4.1.3,0a1.42,1.42,0,0,0-.2-.6s-.2-.1-.3,0S528,238.6,528.1,238.9Zm0,6.3Zm8.7-13.4c-5.3.8-4.8,1.9-4.9,7-.1,8.9.5,17.5.5,26.2,0,2.2-1,9.1,1.2,9.3,1.4.2,5.9-11.2,6.2-12.2a127.22,127.22,0,0,0,4.7-25.2C545.3,231.5,540.4,231.2,536.8,231.8Z" transform="translate(-49.1 -52.7)" fill="#d8615b"/><path d="M586.7,243.6c-.2,5.7-.4,11.3-.2,17.1a68.26,68.26,0,0,1-.7,14.3c-.7,5.1,1.2,9.7-5.2,11.2-2.3.6-5,.5-7.4.9-1.9.2-4.2,1-6.1.2-5.6-2.3-6.4-7.2-7.1-12.4-1.4-10.9-.7-22.2-.6-33.3,0-2.7.6-5.5.3-8-.2-2.1-1.1-3.9-1.4-6-.2-2.3-.9-3.1,1.9-4.6a11.4,11.4,0,0,1,6-1,5.26,5.26,0,0,1,4,2.2c2.2,2.6,1,3.5.5,6.4-1,5.6-.8,11.9-1,17.6-.2,5.2-3.3,34.9,5.2,33.6,8.2-1.2,2.8-17.3,3.9-22.1-.1.2,0-.5,0-.2.8-9.1.4-18.4.4-27.6.1-2.3-.6-8,1.5-9.7,5.1-3.9,5.5,3.9,5.2,6.4C585.6,233.7,586.9,238.7,586.7,243.6Zm-24.2,3.8a.61.61,0,0,0-.6-.1c.1-.1.1-.2,0-.2v-.9c0-.2-.3-.5-.2-.6v-.1l.2-.2a5.36,5.36,0,0,0,.5-1.1c0-.3,0-.8-.3-1-.1-.1-.2-.2-.3-.2-.3-.2.3-.8.4-1a1.1,1.1,0,0,0-.2-1.5c-.2-.1-.7-.2-.8,0s.2.6.2.9a3.09,3.09,0,0,1-.2.8c0,.2-.2.6.2.9-.2,0-.2.1-.2.2-.2.4.1.9,0,1.3-.1.6-.5,1-.6,1.6-.1.3.2.6.3.9,0,.1.1.1.1.2-.2.9-1,1.8-.5,2.7,0,.1.5.1.6,0,.3-.4.2-.8.4-1.2l.2-.6a4.87,4.87,0,0,1-.1,1.2,4.48,4.48,0,0,1-.5,1.9,2.61,2.61,0,0,0,.1,2,.45.45,0,0,0-.5,0c-.1.3.2.6.4.9a1.09,1.09,0,0,1,.4.9.52.52,0,0,0-.4.2c-.2.1-.1.2,0,.3a1.33,1.33,0,0,1,.3.8,4.4,4.4,0,0,1-.2,1,.35.35,0,0,0-.2.1,1.34,1.34,0,0,0-.2.9,1.8,1.8,0,0,0,.1,1c0,.2.1.3-.1.6a.31.31,0,0,0-.1.2c0,.2.4.2.6.3v.2c0,.3.3.6.4.9h.2a5.93,5.93,0,0,0-.4-.8.6.6,0,0,0,.4-.1c.2-.2.2-.3,0-.4s.1-.6,0-.8a3.55,3.55,0,0,1-.2-1c0-.3.2-.6-.1-1a.1.1,0,0,1,.1-.1,8.87,8.87,0,0,0,.3-1.4,2.23,2.23,0,0,0,0-1.4l-.2-.2a.1.1,0,0,0,.1-.1c-.1-.2.1-.4.2-.6a2.2,2.2,0,0,0-.1-.8,1.85,1.85,0,0,1-.2-.7,3.18,3.18,0,0,1,.3-.9,4.68,4.68,0,0,0,.2-1.6A3.81,3.81,0,0,0,562.5,247.4Zm-1.1,6.1v.2c-.1-.2-.2-.3-.2-.5C561.3,253.2,561.4,253.4,561.4,253.5ZM564,232a1.15,1.15,0,0,0-1-.1.35.35,0,0,1,.1-.2,1.42,1.42,0,0,0,.2-.6,3.19,3.19,0,0,0-.3-1.4c0-.1-.3-.1-.4,0a3,3,0,0,0-.2,1.3c.1.2-.1.5-.1.7s.1.3.2.6a3.36,3.36,0,0,0-.8,1.4,2.15,2.15,0,0,0-.2,1.1c0,.4.2.6.6,1v.1a8.3,8.3,0,0,0-.6,2.1,3.75,3.75,0,0,0,.1,1.1,2.08,2.08,0,0,0,.1,1.1c0,.1.2.1.2,0l.2-.6a1.2,1.2,0,0,0,.2.8c.1.1.6.1.6,0a1.64,1.64,0,0,0,.2-1l.2-1.2a4.5,4.5,0,0,0,0-2c0-.2-.2-.4-.3-.6.1-.2.1-.3.2-.4a7.54,7.54,0,0,1,.8-2.4C564.1,232.5,564.3,232.2,564,232Zm-1.8,29.9c-.1-.1-.4-.1-.4.1a6.89,6.89,0,0,1,.3.8c.1,0,.3,0,.3-.1A3.09,3.09,0,0,0,562.2,261.9Zm1-20.3-.2-.8c0-.1-.3-.1-.4,0a1.27,1.27,0,0,0-.1.6c-.1.2.1.5-.1.8s-.4.6.2,1c.1.1.3.1.2,0s-.3-.4,0-.6a1.76,1.76,0,0,0,.4-.5C563.4,241.9,563.3,241.8,563.2,241.6Zm-.8-12.1h.2s0-.1-.2,0Zm.5,16.1c0-.4-.1-.8-.1-1.2,0-.1-.1-.1-.1,0a2.44,2.44,0,0,0,0,1.2Zm21.7-13.2h0c.1-.2-.1-.2-.2-.2l-.2-.3h-.1l.2.3a.14.14,0,0,0-.2,0c-.1.1-.1.1,0,.2s0,.2,0,.3.1.2,0,.3-.1.2.1.4h-.1c-.1.2-.2.3-.2.5s-.2.4-.1.5.1.1.1.2-.1.1-.1.2v.3c0,.1.1.2.1.3s-.2.2-.2.2a1.27,1.27,0,0,0-.1.6.88.88,0,0,0-.1.7.37.37,0,0,0,.3.1c0,.2-.1.2,0,.3s.1.2,0,.2-.1.1-.1.2a.52.52,0,0,0-.2.4c0,.1,0,.2.2.4h.2c.2.1-.2.3-.2.4-.2.2-.2.4.1.6a.35.35,0,0,0,.2.1l-.2.2c0-.2,0-.2-.1-.3s-.3-.1-.3,0l-.2.3c0,.2-.1.3-.1.5s-.2.5,0,.7a.22.22,0,0,0,.2.2.31.31,0,0,0-.1.2,3.55,3.55,0,0,1-.4.9c0,.1-.2.2,0,.3a.45.45,0,0,0,.5,0v.1a.35.35,0,0,1-.1.2c0,.2.2.3.2.5s.2,0,.2,0c.1-.2.2-.3.1-.5a.35.35,0,0,1,.1-.2s-.1-.2-.2-.2c.2-.1.2-.3.3-.5s.2-.2.2-.4-.2-.2-.3-.3v-.1l.3-.7c0-.2,0-.3-.1-.4s.1-.3,0-.4h-.1c.1,0,.2,0,.2-.1s-.1-.2-.1-.3.1-.2.1-.3.1-.2-.1-.3h.1c.2-.2,0-.3,0-.5s.3-.4.4-.6-.2-.2-.2-.3a.1.1,0,0,1-.1-.1c.2-.3.6-.6.3-1h-.3c-.2.2-.1.3-.2.5-.1,0-.1.1-.2.2a.9.9,0,0,1,.1-.5,1.42,1.42,0,0,1,.2-.6c.2-.2.2-.3.2-.6l-.2-.2v-.1a.35.35,0,0,1,.1.2h.2c.1-.1,0-.2-.2-.3s-.2-.2-.2-.3.2,0,.2-.1,0-.1,0-.1-.2-.2-.2-.3.1-.2.1-.3.2,0,.2-.1a.37.37,0,0,0,.1-.3c.1-.1,0-.2,0-.3A1.42,1.42,0,0,1,584.6,232.4Zm-1.5,6.6a.31.31,0,0,1,.1.2l.2.1c0-.1,0-.2.1-.2s-.1-.2,0-.3.2-.2-.1-.3c0-.1-.2-.1-.1,0s.2.2,0,.2a.22.22,0,0,0-.2.2Zm.2-1.5v.5h.1c0-.2.1-.3-.1-.5Zm.8-5.9h.2c0-.2-.1-.2-.2-.3H584A.44.44,0,0,0,584.1,231.6Z" transform="translate(-49.1 -52.7)" fill="#d8615b"/><path d="M643.5,279.8c-.5,4.7-1,5.2-5.2,7.1-4.4,1.9-9.4,3.7-13.9.6-6.4-4.4-3.6-16.6-4.4-23.4-1.3-10.1-1.3-23.7,1.9-33.5,3.4-10.4,14.9-13.3,23.1-6.4a.35.35,0,0,0,.2.1c.2,5.1,4.7,24.9-3.2,24.4-6.5-.4-4.9-4.9-4.7-9.1.2-3,.6-12.4-3.9-11.9-7.1.7-4.1,19.2-4.5,24-.3,5.2-1,9.3-.2,14.5.6,4.5-.9,10.1,2.4,13.7,7.2,7.7,8.2-11.5,9.1-15.1.5-1.9.4-3.1,2.3-3.7,2.1-.7,4.6,1.4,5,3.1C648.1,268.5,643.9,275.3,643.5,279.8Zm-19-13.9c0-.1-.3-.1-.6,0v-.1c.1,0,.2,0,0-.1a.45.45,0,0,0,0-.5c0-.2-.3-.4-.2-.5l.2-.2a1.27,1.27,0,0,0,.4-.7.45.45,0,0,0-.3-.6c0-.1-.2-.1-.3-.1-.3-.2.3-.6.4-.7.3-.3.3-.7-.2-1a.85.85,0,0,0-.7,0c-.2.2.1.4.1.6a1.27,1.27,0,0,1-.1.6c0,.2-.2.4.2.6-.1,0-.2,0-.2.1-.2.2.2.6.1.9s-.5.6-.6,1c-.1.2.2.4.4.6v.1c-.2.6-1,1.1-.5,1.7.1.1.6.1.6,0,.2-.2.2-.5.3-.8l.3-.3a2.2,2.2,0,0,0-.1.8,2.08,2.08,0,0,1-.5,1.2.92.92,0,0,0-.2,1c.2.2.2.4.3.6l.1.1c-.2-.1-.2-.2-.2-.2s-.4-.1-.4,0c-.2.2.1.3.3.5a.72.72,0,0,1,.4.6c-.2,0-.3,0-.4.1s-.1.2,0,.2a.37.37,0,0,1,.2.5h.1l-.2.6H623a.73.73,0,0,0-.2.6.61.61,0,0,0,.1.6c0,.2,0,.2-.1.3l-.2.2a1.07,1.07,0,0,0,.6.2v.1c0,.2.2.4.4.6a.1.1,0,0,0,.1-.1l-.3-.5h.4c.2-.2.2-.2,0-.3s.1-.3.1-.5-.2-.5-.1-.6.2-.5-.1-.6l.1-.1a3.55,3.55,0,0,0,.4-.9c.1-.3.3-.6,0-1-.1,0-.1-.1-.2-.1v-.1c0-.1.2-.2.2-.4s.1-.3-.1-.5a.9.9,0,0,1-.1-.5c0-.2.2-.4.3-.6a1.64,1.64,0,0,0,.2-1A2.21,2.21,0,0,0,624.5,265.9Zm1.1-10.1a1.7,1.7,0,0,0-1,0c0-.1,0-.1.1-.2l.2-.4a2.26,2.26,0,0,0-.4-.9c0-.1-.4-.1-.4,0a1.34,1.34,0,0,0-.2.9c0,.1-.1.2-.2.4s.2.2.2.4a1.33,1.33,0,0,0-.6.9,1,1,0,0,0-.2.7c0,.2.3.5.6.6v.1a14.66,14.66,0,0,0-.6,1.4c0,.2.1.5.1.7s0,.5.2.7c0,.1.2.1.2,0l.2-.4c0,.2.1.3.2.5a.64.64,0,0,0,.6,0,.73.73,0,0,0,.2-.6,2.35,2.35,0,0,1,.2-.8,1.48,1.48,0,0,0,0-1.3l-.3-.4c0-.1,0-.2.1-.2a4.34,4.34,0,0,1,.7-1.6C625.7,256.2,625.8,256,625.6,255.8Zm-1.8,19.5c-.1-.1-.4-.1-.4,0s.2.4.2.6c.1,0,.3,0,.3-.1A.44.44,0,0,0,623.8,275.3Zm1.3-13.2-.2-.5c0-.1-.4-.1-.4,0l-.2.4c0,.2.2.3,0,.5s-.4.5.2.7c0,0,.2,0,.2-.1-.2-.2-.3-.2-.1-.4a1.38,1.38,0,0,0,.4-.3C625.3,262.3,625.2,262.2,625.1,262.1Zm-.2,2.5c0-.2-.1-.6-.1-.8h-.2a2.2,2.2,0,0,0,.1.8Z" transform="translate(-49.1 -52.7)" fill="#d8615b"/><path d="M683.4,256.7c-.2,5.7-2,35.7-13.6,29.1-1-.6-1.4-1.8-2.3-2.3-1.1-.6-2.5-.3-3.5-1-3.1-1.8-4.7-5.6-5.6-8.9-1.7-6.3-.1-14.2-2.3-20.2,1.9-.9,1.4-6.8,1.6-8.3a44.46,44.46,0,0,1,2.1-12c.9-2.7,1.9-6.2,4-8.3,2.8-2.9,6.8-2.2,10.5-2,3.9.2,4.6.8,6.4,4.3a22.64,22.64,0,0,1,2.9,10.1C683.6,243.6,683.6,250.3,683.4,256.7Zm-9.5-15.6c0-4.7-.2-7.8-1.8-12.4-8.1,3.5-6.7,14.2-7.2,21.8a84.17,84.17,0,0,0,.1,12.3c.4,3.8,3.5,10.4,3,13.4,3.7,2.2,4.2-1.4,4.9-4.7a84.58,84.58,0,0,0,1.6-14.2C674.8,251.8,673.9,246.5,673.9,241.1Zm6.6,14.7a.61.61,0,0,0-.6-.1c.1-.1.1-.1,0-.2v-.7c0-.2-.3-.4-.1-.6v-.1a.22.22,0,0,1,.2-.2,1.78,1.78,0,0,0,.4-1,1.56,1.56,0,0,0-.3-1,.37.37,0,0,1-.3-.1c-.3-.2.2-.7.4-.9a1.21,1.21,0,0,0-.2-1.4c-.2-.1-.7-.1-.7.1-.2.2.1.5.1.7a1.7,1.7,0,0,1-.1.7c0,.2-.2.6.2.7-.2.1-.2.1-.2.2-.2.3.1.7,0,1.1s-.5.9-.6,1.4c-.1.2.2.6.3.8a.1.1,0,0,1,.1.1c-.2.8-1,1.4-.6,2.3,0,.1.5.1.6,0,.3-.3.2-.6.4-1l.3-.5-.2,1a2.45,2.45,0,0,1-.6,1.6,1.09,1.09,0,0,0-.2,1.2c0,.2.1.4.1.6-.1-.1-.3-.2-.4-.1s.1.5.3.7a.83.83,0,0,1,.2.8c-.2,0-.3,0-.4.1s-.1.2,0,.3a2.07,2.07,0,0,1,.2.6c0,.1,0,.1.1.1-.2.2-.2.5-.3.7-.2,0-.2,0-.2.1-.2.2-.2.4-.3.6a1.2,1.2,0,0,0-.2.8c0,.2,0,.2-.2.4s-.2.1-.2.2.3.2.4.4v.1c0,.2,0,.3.1.4s.1.3.1.4.2.1.2.1c0-.2-.2-.5-.2-.7.1,0,.3.1.4.1s.2-.2.1-.4.2-.3.2-.6a2.77,2.77,0,0,1,.1-.9c.1-.2.3-.6.1-.8v-.1a.1.1,0,0,0,.1-.1,2.38,2.38,0,0,0,.6-1.1c.2-.3.4-.8.2-1.1a.22.22,0,0,0-.2-.2h.1c-.1-.2.2-.3.2-.6a.85.85,0,0,0,0-.7c0-.2-.1-.4-.1-.6a2.51,2.51,0,0,1,.4-.7,7,7,0,0,0,.3-1.4A4,4,0,0,0,680.5,255.8Zm-2.4,12.1c0-.1-.4-.2-.4-.1v.7c0,.1.2.2.2.1C678.1,268.5,678.1,268.2,678.1,267.9Zm.8-7.2Zm.1,0c0,.1,0,.2.1.2a.35.35,0,0,1,.1.2C679,260.9,678.9,260.8,679,260.7Zm2.4-18.5c-.2-.2-.7-.1-1,0,.1,0,.1-.1.1-.2a1.07,1.07,0,0,0,.2-.6,3.85,3.85,0,0,0-.5-1.2c-.1,0-.4,0-.4.1a2.34,2.34,0,0,0-.2,1.1c.1.2,0,.4,0,.6s.2.3.2.5a2.55,2.55,0,0,0-.6,1.3,1.41,1.41,0,0,0-.1.9c0,.4.3.6.6.9v.1a6.69,6.69,0,0,0-.5,1.9,3.75,3.75,0,0,0,.1,1c.1.3,0,.6.2,1,0,.1.2.1.2,0s.1-.2.2-.4a1.42,1.42,0,0,0,.2.6c.1.1.6,0,.6-.1a1.2,1.2,0,0,0,.2-.8l.2-1.1a3.67,3.67,0,0,0-.1-1.8,1.76,1.76,0,0,0-.4-.5c0-.1.1-.2.1-.3a10.41,10.41,0,0,1,.6-2.2C681.5,242.7,681.7,242.3,681.4,242.2Zm-1.8-2Zm1.6,10.5c-.2-.2-.1-.4-.2-.6s-.4-.1-.4,0l-.2.5c0,.2.2.5,0,.7-.2.4-.4.6.2.9h.2c-.2-.2-.3-.4-.1-.6a.78.78,0,0,0,.4-.4C681.3,251,681.3,250.9,681.2,250.7Zm-.2,3.5-.2-1c0-.1-.1-.1-.1,0a3.33,3.33,0,0,0,0,1Z" transform="translate(-49.1 -52.7)" fill="#d8615b"/><path d="M690.3,230.7c-1.4,3.4-1.4,19.4,1.2,20.8,1.7.9,10.8-2.2,10.4,2.9-.3,3.9-6.8,2.1-9,2.8-6.5,2.2-2.7,16.8-3,22.6,1.6-.2,12.8-2.7,10.6,3.1-.4,1-11.1,3.9-12.9,4.1-10.9,1.1-6.1-16.2-6-22.3.4-11.3-.6-22.9-.4-34.1,0-4.1-.3-6.9,4.7-7.8a27.92,27.92,0,0,1,15.9,1.6C707.3,232.6,692.2,226,690.3,230.7Zm-4.5,28.6c0-.1-.3-.1-.5-.1.1,0,.1-.1,0-.1a2.49,2.49,0,0,0-.1-.8c0-.2-.3-.4-.2-.6s.2-.2.2-.3a1.78,1.78,0,0,0,.4-1,1.21,1.21,0,0,0-.3-.9.37.37,0,0,0-.3-.1c-.3-.2.2-.7.4-1a1,1,0,0,0-.3-1.3.85.85,0,0,0-.7,0c-.2.2.1.6.1.8s0,.4,0,.6a.55.55,0,0,0,.2.8c-.2,0-.2.1-.2.1-.2.4.1.8.1,1.2s-.5.9-.6,1.4c-.1.2.2.6.4.8l.1.1h-.1c-.1.8-.9,1.5-.4,2.3.1.2.5.1.6,0,.3-.3.2-.6.4-1l.2-.5a4.1,4.1,0,0,1-.1,1.1,3.43,3.43,0,0,1-.4,1.6,1.48,1.48,0,0,0-.2,1.3c.2.2.2.5.3.7l.1.1c-.2-.1-.2-.2-.2-.3s-.4-.1-.4,0c-.2.2.1.5.4.7a1.08,1.08,0,0,1,.3.7c-.2.1-.3.1-.4.2s-.1.2,0,.3.3.4.2.6h.1a3.09,3.09,0,0,0-.2.8c-.2,0-.2.1-.2.1a1.2,1.2,0,0,0-.2.8c-.1.2.1.6.1.8a.6.6,0,0,1-.1.4l-.2.2c.1.2.4.2.6.3v.1a1.23,1.23,0,0,0,.4.8h.1l-.3-.7a.3.3,0,0,0,.4,0c.2-.2.2-.2,0-.4s.1-.4.1-.6a1.34,1.34,0,0,1-.1-.9c0-.2.2-.6,0-.8h-.1c0-.1.1-.1.1-.2a4.23,4.23,0,0,0,.4-1.2c.1-.3.3-.8,0-1.1a.22.22,0,0,0-.2-.2c0-.2.2-.3.2-.6a1.7,1.7,0,0,0-.1-.7,1.27,1.27,0,0,1-.1-.6c-.1-.2.2-.5.2-.7a3.64,3.64,0,0,0,.2-1.4A3,3,0,0,0,685.8,259.3Zm1-13.4a1.7,1.7,0,0,0-1,0,.31.31,0,0,0,.1-.2,1.42,1.42,0,0,0,.2-.6c.1-.4-.2-.8-.3-1.2-.1-.1-.4-.1-.4,0a1.39,1.39,0,0,0-.2,1.1c0,.2-.1.4-.1.6a.76.76,0,0,0,.2.5,2.4,2.4,0,0,0-.7,1.3,1.64,1.64,0,0,0-.2,1c0,.3.3.6.6.9l-.1.1a5.92,5.92,0,0,0-.5,1.9c0,.3.1.6.1,1s0,.6.2,1h.2a1.42,1.42,0,0,0,.2-.6c.1.2.2.5.3.7a.64.64,0,0,0,.6,0,1.49,1.49,0,0,0,.2-.9l.2-1a2.79,2.79,0,0,0-.1-1.8c0-.2-.2-.3-.3-.5s.1-.2.1-.3a8.64,8.64,0,0,1,.7-2.1C686.8,246.4,687,246.1,686.8,245.9Zm-1.6,25.9c0-.1-.4-.1-.4,0l.3.7c0,.1.2.1.2,0S685.3,272.1,685.2,271.8Zm0-28h0c.1.1.2.1.2,0Zm1.2,10.5-.2-.7c0-.1-.4-.1-.4,0a1.08,1.08,0,0,0-.1.6c-.1.2.1.4-.1.6-.2.4-.4.6.2.9.1.1.3,0,.2,0-.2-.2-.3-.4-.1-.6l.4-.4C686.5,254.6,686.4,254.4,686.4,254.3Zm-.2,3.3a3.08,3.08,0,0,1-.1-1c0-.1-.2-.1-.2,0a3.75,3.75,0,0,0,.1,1C686,257.7,686.2,257.7,686.2,257.6Z" transform="translate(-49.1 -52.7)" fill="#d8615b"/><path d="M738.3,243.6c-.2,5.7-.4,11.3-.2,17.1a68.26,68.26,0,0,1-.7,14.3c-.7,5.1,1.2,9.7-5.2,11.2-2.3.6-5,.5-7.4.9-1.9.2-4.2,1-6.1.2-5.6-2.3-6.4-7.2-7.1-12.4-1.4-10.9-.7-22.2-.6-33.3,0-2.7.6-5.5.3-8-.2-2.1-1.1-3.9-1.4-6-.2-2.3-.9-3.1,1.9-4.6a11.4,11.4,0,0,1,6-1,5.26,5.26,0,0,1,4,2.2c2.2,2.6,1,3.5.5,6.4-1,5.6-.8,11.9-1,17.6-.2,5.2-3.3,34.9,5.2,33.6,8.2-1.2,2.8-17.3,3.9-22.1-.1.2,0-.5,0-.2.8-9.1.4-18.4.4-27.6.1-2.3-.6-8,1.5-9.7,5.1-3.9,5.5,3.9,5.2,6.4C737.2,233.7,738.4,238.7,738.3,243.6Zm-24.2,3.8a.61.61,0,0,0-.6-.1c.1-.1.1-.2,0-.2v-.9c0-.2-.3-.5-.2-.6v-.1l.2-.2a5.36,5.36,0,0,0,.5-1.1c0-.3,0-.8-.3-1-.1-.1-.2-.2-.3-.2-.3-.2.3-.8.4-1a1.1,1.1,0,0,0-.2-1.5c-.2-.1-.7-.2-.8,0s.2.6.2.9a3.09,3.09,0,0,1-.2.8c0,.2-.2.6.2.9-.2,0-.2.1-.2.2-.2.4.1.9,0,1.3-.1.6-.5,1-.6,1.6-.1.3.2.6.3.9,0,.1.1.1.1.2-.2.9-1,1.8-.5,2.7,0,.1.5.1.6,0,.3-.4.2-.8.4-1.2l.2-.6a4.87,4.87,0,0,1-.1,1.2,4.48,4.48,0,0,1-.5,1.9,2.61,2.61,0,0,0,.1,2,.45.45,0,0,0-.5,0c-.1.3.2.6.4.9a1.09,1.09,0,0,1,.4.9.52.52,0,0,0-.4.2c-.2.1-.1.2,0,.3a1.33,1.33,0,0,1,.3.8,4.4,4.4,0,0,1-.2,1,.35.35,0,0,0-.2.1,1.34,1.34,0,0,0-.2.9,1.8,1.8,0,0,0,.1,1c0,.2.1.3-.1.6a.31.31,0,0,0-.1.2c0,.2.4.2.6.3v.2c0,.3.3.6.4.9h.2a5.93,5.93,0,0,0-.4-.8.6.6,0,0,0,.4-.1c.2-.2.2-.3,0-.4s.1-.6,0-.8a3.55,3.55,0,0,1-.2-1c0-.3.2-.6-.1-1a.1.1,0,0,1,.1-.1,8.87,8.87,0,0,0,.3-1.4,2.23,2.23,0,0,0,0-1.4l-.2-.2a.1.1,0,0,0,.1-.1c-.1-.2.1-.4.2-.6a2.2,2.2,0,0,0-.1-.8,1.85,1.85,0,0,1-.2-.7,3.18,3.18,0,0,1,.3-.9,4.68,4.68,0,0,0,.2-1.6A6.49,6.49,0,0,0,714.1,247.4Zm-1.1,6.1v.2c-.1-.2-.2-.3-.2-.5A1.44,1.44,0,0,0,713,253.5Zm2.6-21.5a1.15,1.15,0,0,0-1-.1.35.35,0,0,1,.1-.2,1.42,1.42,0,0,0,.2-.6,3.19,3.19,0,0,0-.3-1.4c0-.1-.3-.1-.4,0a3,3,0,0,0-.2,1.3c.1.2-.1.5-.1.7s.1.3.2.6a3.36,3.36,0,0,0-.8,1.4,2.15,2.15,0,0,0-.2,1.1c0,.4.2.6.6,1v.1a8.3,8.3,0,0,0-.6,2.1,3.75,3.75,0,0,0,.1,1.1,2.08,2.08,0,0,0,.1,1.1c0,.1.2.1.2,0l.2-.6a1.2,1.2,0,0,0,.2.8c.1.1.6.1.6,0a1.64,1.64,0,0,0,.2-1l.2-1.2a4.5,4.5,0,0,0,0-2c0-.2-.2-.4-.3-.6.1-.2.1-.3.2-.4a7.54,7.54,0,0,1,.8-2.4C715.7,232.5,715.8,232.2,715.6,232Zm-1.9,29.9c-.1-.1-.4-.1-.4.1a6.89,6.89,0,0,1,.3.8c.1,0,.3,0,.3-.1A.88.88,0,0,0,713.7,261.9Zm1.1-20.3-.2-.8c0-.1-.3-.1-.4,0a1.27,1.27,0,0,0-.1.6c-.1.2.1.5-.1.8s-.4.6.2,1c.1.1.3.1.2,0s-.3-.4,0-.6a1.76,1.76,0,0,0,.4-.5A.45.45,0,0,0,714.8,241.6Zm-.8-12.1h.2c-.1,0-.1-.1-.2,0Zm.5,16.1c0-.4-.1-.8-.1-1.2,0-.1-.1-.1-.1,0a2.44,2.44,0,0,0,0,1.2Zm21.7-13.2h0c.1-.2-.1-.2-.2-.2l-.2-.3h-.1l.2.3a.14.14,0,0,0-.2,0c-.1.1-.1.1,0,.2s0,.2,0,.3.1.2,0,.3-.1.2.1.4h-.1c-.1.2-.2.3-.2.5s-.2.4-.1.5.1.1.1.2-.1.1-.1.2v.3c0,.1.1.2.1.3s-.2.2-.2.2a1.27,1.27,0,0,0-.1.6.88.88,0,0,0-.1.7.37.37,0,0,0,.3.1c0,.2-.1.2,0,.3s.1.2,0,.2-.1.1-.1.2a.52.52,0,0,0-.2.4c0,.1,0,.2.2.4h.2c.2.1-.2.3-.2.4-.2.2-.2.4.1.6a.35.35,0,0,0,.2.1l-.2.2c0-.2,0-.2-.1-.3s-.3-.1-.3,0l-.2.3c0,.2-.1.3-.1.5s-.2.5,0,.7a.22.22,0,0,0,.2.2.31.31,0,0,0-.1.2,3.55,3.55,0,0,1-.4.9c0,.1-.2.2,0,.3a.45.45,0,0,0,.5,0v.1a.35.35,0,0,1-.1.2c0,.2.2.3.2.5s.2,0,.2,0c.1-.2.2-.3.1-.5a.35.35,0,0,1,.1-.2s-.1-.2-.2-.2c.2-.1.2-.3.3-.5s.2-.2.2-.4-.2-.2-.3-.3v-.1l.3-.7c0-.2,0-.3-.1-.4s.1-.3,0-.4h-.1c.1,0,.2,0,.2-.1s-.1-.2-.1-.3.1-.2.1-.3.1-.2-.1-.3h.1c.2-.2,0-.3,0-.5s.3-.4.4-.6-.2-.2-.2-.3a.1.1,0,0,1-.1-.1c.2-.3.6-.6.3-1h-.3c-.2.2-.1.3-.2.5-.1,0-.1.1-.2.2a.9.9,0,0,1,.1-.5,1.42,1.42,0,0,1,.2-.6c.2-.2.2-.3.2-.6l-.2-.2v-.1a.35.35,0,0,1,.1.2h.2c.1-.1,0-.2-.2-.3s-.2-.2-.2-.3.2,0,.2-.1,0-.1,0-.1-.2-.2-.2-.3.1-.2.1-.3.2,0,.2-.1a.37.37,0,0,0,.1-.3c.1-.1,0-.2,0-.3A1.42,1.42,0,0,1,736.2,232.4Zm-1.5,6.6a.31.31,0,0,1,.1.2l.2.1c0-.1,0-.2.1-.2s-.1-.2,0-.3.2-.2-.1-.3c0-.1-.2-.1-.1,0s.2.2,0,.2a.22.22,0,0,0-.2.2Zm.2-1.5v.5h.1c0-.2.1-.3-.1-.5Zm.8-5.9h.2c0-.2-.1-.2-.2-.3h-.2C735.5,231.5,735.6,231.6,735.7,231.6Z" transform="translate(-49.1 -52.7)" fill="#d8615b"/><path d="M774.2,291.8c-5.2,1.4-7.7-5.9-9.7-9.4-1.5-2.7-4.9-14.6-8.1-14.6-.2,3.9-.8,8.2.5,12,.9,2.8,3.2,6.5,0,8.7-8.5,5.7-8-15.1-8-18.2-.2-7.8.8-15.7.9-23.5,0-5,.2-10,.2-14.9-.1-4.3-1.2-6.7,1.9-10,2.6.5,4.5,1,6.9.5,3-.7,4.7-1.7,7.9,0,5.1,2.7,5.9,8.9,6.1,14.1a35.49,35.49,0,0,1-3.5,18.4c-2.2,4.2-7.6,5.7-5.4,10.5s4.8,9.1,7,13.8C772.2,282.5,779.3,290.4,774.2,291.8Zm-20.7-15.6c-.1-.2-.3-.2-.6-.4v-.1a3.33,3.33,0,0,0,.6-1,1.42,1.42,0,0,0-.2-.6c0-.2.1-.3-.1-.5,0-.1-.2-.1-.2,0l-.2.3c0-.2-.1-.2-.2-.4H752a.55.55,0,0,0-.2.5,1.42,1.42,0,0,1-.2.6.75.75,0,0,0,0,.9l.4.2-.2.2a2.27,2.27,0,0,1-.7,1.1c-.1.2-.2.3,0,.4a1.7,1.7,0,0,0,1,0v.1c-.1.1-.2.2-.2.3s.2.4.3.6h.3c.1.1.1.1.2.1l-.1-.1c.2-.2.3-.5.2-.6s.1-.2.1-.3-.2-.2-.2-.2a1.48,1.48,0,0,0,.7-.7A.58.58,0,0,0,753.5,276.2Zm-2.1-3.1.2.4h.4c.1-.2.1-.2.1-.3s-.1-.2.1-.4.4-.3-.2-.5c0,0-.3,0-.2.1s.3.2.1.3-.3.1-.4.2S751.3,273,751.4,273.1Zm.2-1.9a1.42,1.42,0,0,1,.2.6h.1c0-.2.1-.3,0-.6Zm1.8-.7h0c.2-.5,1-.9.6-1.3-.1-.1-.6,0-.6,0-.3.2-.2.4-.4.6l-.2.3a1.27,1.27,0,0,1,.1-.6,1.65,1.65,0,0,1,.5-.9c.3-.2.3-.4.2-.6s-.2-.3-.3-.4a.1.1,0,0,0-.1-.1c.2.1.2.2.2.2s.4.1.4,0c.2-.1-.1-.2-.3-.3a1.76,1.76,0,0,1-.4-.5h.5c.2-.1,0-.2,0-.2-.2-.1-.3-.2-.2-.3h-.1c0-.2.2-.3.2-.5h.2c.2-.2.2-.3.2-.4s0-.3,0-.5-.1-.2.1-.2.2-.1.1-.1-.3-.2-.5-.2v-.1c0-.2-.2-.3-.4-.4h-.1l.3.3c-.2,0-.3,0-.4.1s-.2.1,0,.2-.2.2-.1.4.1.3,0,.5-.2.2.1.4l-.1.1a2.09,2.09,0,0,0-.4.6c-.1.2-.3.5-.1.6a.35.35,0,0,1,.2.1c-.1,0-.1,0-.1.1s-.1.2-.2.2a.6.6,0,0,0,.1.4c.1.2.1.2.1.3s-.2.3-.3.5a2.93,2.93,0,0,0-.2,1.6.63.63,0,0,0,.6,0v.1c0,.2,0,.3.1.4s.2.2.1.3a.22.22,0,0,1-.2.2l-.4.6c0,.2,0,.3.4.5h.2c.4.2-.2.4-.4.6s-.2.5.3.7c.1,0,.6,0,.7-.1s-.1-.2-.1-.4,0-.2,0-.3.2-.4-.2-.5h.2c.2-.2-.2-.5-.1-.6s.5-.5.6-.8-.1-.4-.4-.6Zm-.5-6.9h.4l-.3-.4c0-.1-.2,0-.2,0C752.7,263.4,752.8,263.4,752.9,263.6Zm9-34.9c-7.4-.3-4.8,23.9-4.8,28.3C762.7,254.2,770.2,229.1,761.9,228.7Z" transform="translate(-49.1 -52.7)" fill="#d8615b"/><path d="M453.1,82.7a21.59,21.59,0,0,0-6.5-4.3,28.21,28.21,0,0,0-7.3-1.6c-.6,0-1.2-.1-1.8-.1-1.7,0-18.7.9-19.2,6.4,0,.4,17.1-.4,20.6,16.9a70.4,70.4,0,0,1,1.1,15.8,104,104,0,0,1-2.6,19,101.39,101.39,0,0,1-6.6,19.7,92.61,92.61,0,0,1-10.9,18.1,55.54,55.54,0,0,1-15.8,14,19.49,19.49,0,0,1-9.9,2.9,16.59,16.59,0,0,1-4.9-.7,31.3,31.3,0,0,1-13.1-8.1,69.17,69.17,0,0,1-9.3-12,108.35,108.35,0,0,1-7.8-15.2,144.87,144.87,0,0,1-6-17.2,129.6,129.6,0,0,1-3.8-18.1,118.72,118.72,0,0,1-1.3-17.6,75.14,75.14,0,0,1,1.6-16.1,43.87,43.87,0,0,1,5.1-13.3,26.48,26.48,0,0,1,9.3-9.5,14.47,14.47,0,0,1,7.6-2.2,12.7,12.7,0,0,1,3.4.5,21,21,0,0,1,9.3,5.7,50.51,50.51,0,0,1,9,12.9,94.3,94.3,0,0,1,6.6,16.9,115.54,115.54,0,0,1,3.7,18.6,75.35,75.35,0,0,1,.6,9.4c0,2.2,0,4.4-.2,6.5h0a.77.77,0,0,1-.1.3,2.2,2.2,0,0,1-.1.8,6,6,0,0,0,4.2,6c2.6.9,4.4,1.2,6,.9.8-.2,8.8-.6,5-32.2-.5-3.3-1.1-6.5-1.9-9.7A98.2,98.2,0,0,0,410.3,77a54,54,0,0,0-10.2-14.7,41,41,0,0,0-8.3-6.4,25,25,0,0,0-9.1-3c-1.1-.1-2.2-.2-3.4-.2a34,34,0,0,0-6.9.8,39.09,39.09,0,0,0-11.6,4.9,48.14,48.14,0,0,0-16.2,15.5,66.78,66.78,0,0,0-8.8,20.9,85.59,85.59,0,0,0-2,23.9,109.1,109.1,0,0,0,3.9,24.3,110.72,110.72,0,0,0,8.9,22.2,79,79,0,0,0,12.8,17.6,49.83,49.83,0,0,0,10.5,8.2,34.18,34.18,0,0,0,11.2,4.3,27.82,27.82,0,0,0,5.8.5,30.52,30.52,0,0,0,6-.6,39.09,39.09,0,0,0,12.5-4.9,111,111,0,0,0,22-17,119.18,119.18,0,0,0,16.3-20,104.9,104.9,0,0,0,10.5-20.9,78.54,78.54,0,0,0,4.6-20C459.4,106,461.2,89.9,453.1,82.7Z" transform="translate(-49.1 -52.7)" fill="#d8615b"/></svg>